<svg width="17" height="17" viewBox="0 0 17 17" fill="none" xmlns="http://www.w3.org/2000/svg">
<g clip-path="url(#clip0_554_6073)">
<path d="M15.6545 12.2863L13.4106 10.0423C12.6091 9.24088 11.2467 9.56148 10.9262 10.6033C10.6857 11.3246 9.8843 11.7253 9.16302 11.565C7.56018 11.1643 5.39634 9.0806 4.99563 7.39761C4.75521 6.6763 5.23606 5.87488 5.95734 5.63449C6.99919 5.31392 7.31976 3.9515 6.51833 3.15008L4.27435 0.906098C3.63322 0.345103 2.67151 0.345103 2.11051 0.906098L0.587813 2.4288C-0.934888 4.03164 0.748098 8.27918 4.51478 12.0459C8.28146 15.8125 12.529 17.5757 14.1318 15.9728L15.6545 14.4501C16.2156 13.809 16.2156 12.8473 15.6545 12.2863Z" fill="#104CFF"/>
</g>
<defs>
<clipPath id="clip0_554_6073">
<rect width="16.0798" height="16.0798" fill="white" transform="translate(0.0117188 0.485352)"/>
</clipPath>
</defs>
</svg>
