<svg width="36" height="36" viewBox="0 0 36 36" fill="none" xmlns="http://www.w3.org/2000/svg">
<path d="M25.5 31.875H10.5C5.025 31.875 1.875 28.725 1.875 23.25V12.75C1.875 7.275 5.025 4.125 10.5 4.125H25.5C30.975 4.125 34.125 7.275 34.125 12.75V23.25C34.125 28.725 30.975 31.875 25.5 31.875ZM10.5 6.375C6.21 6.375 4.125 8.46 4.125 12.75V23.25C4.125 27.54 6.21 29.625 10.5 29.625H25.5C29.79 29.625 31.875 27.54 31.875 23.25V12.75C31.875 8.46 29.79 6.375 25.5 6.375H10.5Z" fill="#AF6F57"/>
<path d="M18.0002 19.3049C16.7402 19.3049 15.4652 18.915 14.4902 18.12L9.79515 14.37C9.31515 13.98 9.22516 13.275 9.61516 12.795C10.0052 12.315 10.7102 12.225 11.1902 12.615L15.8851 16.365C17.0251 17.28 18.9601 17.28 20.1001 16.365L24.7952 12.615C25.2752 12.225 25.9952 12.3 26.3702 12.795C26.7602 13.275 26.6852 13.995 26.1902 14.37L21.4952 18.12C20.5352 18.915 19.2602 19.3049 18.0002 19.3049Z" fill="#AF6F57"/>
</svg>
