<svg width="18" height="12" viewBox="0 0 18 12" fill="none" xmlns="http://www.w3.org/2000/svg">
<path d="M8.99998 11.625C3.11159 11.625 0.192218 6.49163 0.0708591 6.27323C0.0243879 6.18964 0 6.09557 0 5.99993C0 5.90429 0.0243879 5.81022 0.0708591 5.72662C0.192218 5.50838 3.11159 0.375 8.99998 0.375C14.8884 0.375 17.8078 5.50837 17.9291 5.72677C17.9756 5.81036 18 5.90443 18 6.00007C18 6.09572 17.9756 6.18978 17.9291 6.27338C17.8078 6.49162 14.8884 11.625 8.99998 11.625ZM1.22441 5.99916C1.8935 7.0132 4.52051 10.5 8.99998 10.5C13.4937 10.5 16.109 7.01602 16.7756 6.00084C16.1065 4.9868 13.4795 1.5 8.99998 1.5C4.50631 1.5 1.89097 4.98398 1.22441 5.99916ZM8.99998 9.375C7.13895 9.375 5.62498 7.86103 5.62498 6C5.62498 4.13897 7.13895 2.625 8.99998 2.625C10.861 2.625 12.375 4.13897 12.375 6C12.375 7.86103 10.861 9.375 8.99998 9.375ZM8.99998 3.75C7.75939 3.75 6.74998 4.75941 6.74998 6C6.74998 7.24059 7.75939 8.25 8.99998 8.25C10.2406 8.25 11.25 7.24059 11.25 6C11.25 4.75941 10.2406 3.75 8.99998 3.75Z" fill="white"/>
</svg>
