<svg xmlns="http://www.w3.org/2000/svg" width="13" height="13" viewBox="0 0 13 13" fill="none">
<path d="M9.75065 7.04134H3.25065C2.92565 7.04134 2.70898 6.82467 2.70898 6.49967C2.70898 6.17467 2.92565 5.95801 3.25065 5.95801H9.75065C10.0757 5.95801 10.2923 6.17467 10.2923 6.49967C10.2923 6.82467 10.0757 7.04134 9.75065 7.04134ZM8.12565 10.2913H4.87565C4.55065 10.2913 4.33398 10.0747 4.33398 9.74967C4.33398 9.42467 4.55065 9.20801 4.87565 9.20801H8.12565C8.45065 9.20801 8.66732 9.42467 8.66732 9.74967C8.66732 10.0747 8.45065 10.2913 8.12565 10.2913ZM11.3757 3.79134H1.62565C1.30065 3.79134 1.08398 3.57467 1.08398 3.24967C1.08398 2.92467 1.30065 2.70801 1.62565 2.70801H11.3757C11.7007 2.70801 11.9173 2.92467 11.9173 3.24967C11.9173 3.57467 11.7007 3.79134 11.3757 3.79134Z" fill="#fcd1ba"/>
</svg>