<svg width="40" height="41" viewBox="0 0 40 41" fill="none" xmlns="http://www.w3.org/2000/svg">
<ellipse cx="20.0752" cy="20.5029" rx="19.8428" ry="19.5546" fill="#171717"/>
<g clip-path="url(#clip0_495_1115)">
<path d="M24.4928 15.1675C24.2755 15.1675 24.0986 15.3418 24.0986 15.5559C24.0986 15.77 24.2755 15.9443 24.4928 15.9443C24.7101 15.9443 24.8869 15.7701 24.8869 15.5559C24.8869 15.3417 24.7101 15.1675 24.4928 15.1675ZM19.7735 16.7632C17.8468 16.7632 16.2793 18.3079 16.2793 20.2066C16.2793 22.1054 17.8468 23.6501 19.7735 23.6501C21.7002 23.6501 23.2677 22.1054 23.2677 20.2067C23.2677 18.308 21.7002 16.7632 19.7735 16.7632Z" fill="white"/>
<path d="M23.4407 12.207H16.1068C13.6528 12.207 11.6562 14.1746 11.6562 16.593V23.8203C11.6562 26.2388 13.6528 28.2063 16.1068 28.2063H23.4407C25.8947 28.2063 27.8912 26.2387 27.8912 23.8203V16.593C27.8912 14.1746 25.8947 12.207 23.4407 12.207ZM19.7737 24.5949C17.3184 24.5949 15.3208 22.6264 15.3208 20.2067C15.3208 17.7869 17.3184 15.8184 19.7737 15.8184C22.2291 15.8184 24.2267 17.787 24.2267 20.2067C24.2267 22.6264 22.2291 24.5949 19.7737 24.5949ZM24.493 16.8892C23.747 16.8892 23.1401 16.2911 23.1401 15.5559C23.1401 14.8208 23.747 14.2227 24.493 14.2227C25.239 14.2227 25.8459 14.8208 25.8459 15.5559C25.8459 16.2911 25.239 16.8892 24.493 16.8892Z" fill="white"/>
</g>
<defs>
<clipPath id="clip0_495_1115">
<rect width="16.235" height="15.9992" fill="white" transform="translate(11.6562 12.207)"/>
</clipPath>
</defs>
</svg>
