<svg width="10" height="10" viewBox="0 0 10 10" fill="none" xmlns="http://www.w3.org/2000/svg">
<g id="Frame" clip-path="url(#clip0_1001_1074)">
<g id="Group">
<path id="Vector" d="M5.38248 6.91323L3.85244 8.44331L3.8524 8.44335L3.85237 8.44338C3.21965 9.07614 2.19007 9.07618 1.55728 8.44338C1.25073 8.13683 1.08194 7.72927 1.08194 7.2958C1.08194 6.86238 1.25073 6.45488 1.55717 6.14833L1.55728 6.14822L3.08732 4.61814C3.29856 4.40687 3.29855 4.06433 3.08729 3.8531C2.87606 3.64187 2.53351 3.64187 2.32225 3.8531L0.792198 5.38318L0.791874 5.38354C0.281233 5.89436 0 6.5735 0 7.2958C0 8.01829 0.281341 8.69753 0.792235 9.20842C1.31957 9.73573 2.0122 9.9994 2.70486 9.9994C3.39752 9.9994 4.09018 9.73573 4.61744 9.20842L4.61748 9.20835L6.14753 7.67827C6.35876 7.46704 6.35876 7.1245 6.14749 6.91323C5.9363 6.702 5.59379 6.702 5.38248 6.91323ZM10 2.70552C10 1.98303 9.71862 1.30379 9.20773 0.792894C8.15309 -0.261712 6.43709 -0.261676 5.38252 0.792894L5.38238 0.793074L3.85237 2.32305C3.6411 2.53428 3.6411 2.87686 3.85237 3.08809C3.90254 3.13841 3.96217 3.17831 4.02782 3.20551C4.09347 3.2327 4.16385 3.24665 4.2349 3.24656C4.37332 3.24656 4.51181 3.19372 4.61741 3.08809L6.14742 1.55812L6.1476 1.55794C6.78032 0.925215 7.8099 0.925179 8.44269 1.55794C8.7492 1.86449 8.91806 2.27205 8.91806 2.70552C8.91806 3.13894 8.74927 3.54644 8.4428 3.85299L8.44269 3.8531L6.91264 5.38318C6.70141 5.59441 6.70141 5.93695 6.91268 6.14822C6.96285 6.19853 7.02247 6.23843 7.08812 6.26562C7.15376 6.29282 7.22413 6.30678 7.29518 6.30669C7.43363 6.30669 7.57208 6.25386 7.67772 6.14822L9.20777 4.61814L9.20809 4.61778C9.71873 4.10696 10 3.42782 10 2.70552Z" fill="white"/>
<path id="Vector_2" d="M3.08814 6.91332C3.13831 6.96363 3.19793 7.00353 3.26358 7.03072C3.32922 7.05792 3.39959 7.07187 3.47064 7.07179C3.60909 7.07179 3.74755 7.01895 3.85318 6.91332L6.91335 3.85315C7.12461 3.64192 7.12461 3.29938 6.91335 3.08811C6.70212 2.87688 6.35957 2.87688 6.1483 3.08811L3.08814 6.14824C2.87687 6.35955 2.87687 6.70209 3.08814 6.91332Z" fill="white"/>
</g>
</g>
<defs>
<clipPath id="clip0_1001_1074">
<rect width="10" height="10" fill="white"/>
</clipPath>
</defs>
</svg>
