<?xml version="1.0" encoding="utf-8"?>
<!-- Generator: Adobe Illustrator 27.0.0, SVG Export Plug-In . SVG Version: 6.00 Build 0)  -->
<svg version="1.1" id="Layer_1" xmlns="http://www.w3.org/2000/svg" xmlns:xlink="http://www.w3.org/1999/xlink" x="0px" y="0px"
	 viewBox="0 0 610.43 540" style="enable-background:new 0 0 610.43 540;" xml:space="preserve">
<style type="text/css">
	.st0{fill:url(#SVGID_1_);}
</style>
<linearGradient id="SVGID_1_" gradientUnits="userSpaceOnUse" x1="307.6847" y1="34.0378" x2="307.6847" y2="495.3063">
	<stop  offset="0" style="stop-color:#A35E42"/>
	<stop  offset="0.1119" style="stop-color:#C3876D"/>
	<stop  offset="0.2933" style="stop-color:#FCD1BA"/>
	<stop  offset="1" style="stop-color:#A35E42"/>
</linearGradient>
<path class="st0" d="M438.68,95.95c7.51-7.98,15.39-15.59,23.74-22.7c24.64-20.96,58.23-43.13,92.19-38.62
	c7.95,1.06,15.72,3.94,21.84,9.23c9.85,8.52,14.19,22.19,13.64,35.2c-0.55,13.01-5.48,25.47-11.65,36.93
	c-18.88,35.05-49.6,62.62-83.64,83.26c-34.04,20.64-71.53,34.85-109.01,48.28c-5.21,1.87-10.59,3.82-14.6,7.62
	c-3.83,3.62-6.05,8.58-8.23,13.38c-29.52,65.1-68.33,127.79-124.32,172.23c50.01,16.61,104.02,33.32,154.38,17.82
	c23.02-7.08,43.69-20.61,61.45-36.89c2.78-2.55,5.67-5.26,9.33-6.16c3.66-0.9,8.27,0.83,9.07,4.52c0.76,3.52-2.09,6.69-4.7,9.17
	c-22.49,21.3-45.73,43.09-74.54,54.46c-49.09,19.38-104.71,5.09-153.9-14.02c-8.8-3.42-17.86-7.05-27.29-6.72
	c-12.09,0.42-22.87,7.23-33.55,12.91c-41.94,22.29-96.03,28.43-135.71,2.32c-7.56-4.97-14.77-11.52-17.14-20.25
	c-2.91-10.74,2.48-22.46,10.96-29.67s19.52-10.63,30.44-12.79c43.71-8.65,89.24,0.31,131,15.84c4.78,1.78,9.92,3.67,14.85,2.38
	c5.27-1.37,8.95-5.99,12.19-10.37c15.88-21.46,30.82-43.62,44.74-66.39c13.99-22.89,26.97-46.4,38.87-70.44
	c24.04-48.56,55.65-94.81,87.45-138.54C409.64,129.94,423.39,112.2,438.68,95.95z M444.89,126.77
	c-6.06,7.66-16.52,21.41-33.97,49.45c-8.45,13.58-18.77,30.89-30,51.52c1.04,0.24,1.46,0.47,1.79,0.39
	c1.95-0.49,3.92-0.96,5.83-1.59c56.38-18.57,105.66-48.82,147.47-90.88c17.47-17.57,30.46-38.11,35-63.1
	c2.16-11.86-3.43-21.84-15.15-24.27c-7.52-1.56-14.12-0.25-18.19,1.11c-38.66,12.89-83.92,66.52-83.92,66.52
	C449.52,120.95,446.3,124.99,444.89,126.77z M184.5,452.98c-0.02-0.7-0.04-1.39-0.05-2.09c-24.48-5.73-48.83-12.15-73.49-16.95
	c-18.09-3.52-36.53-3.11-54.55,1.99c-7.28,2.06-11.88,6.81-13.43,14.11c-1.54,7.26,1.34,13.23,7.13,17.44
	c4.2,3.06,8.79,5.77,13.57,7.82c19.34,8.3,39.4,9.28,59.88,5.17C146.01,475.96,166.15,466.41,184.5,452.98z M211.19,117.74
	c9.39,3.58,15.18,11.12,15.45,21.89c0.63,24.81,1.8,49.63,1.84,74.44c0.08,48.03-0.42,96.07-0.85,144.1
	c-0.05,6.02-1.31,12.02-1.75,18.06c-0.74,10.07-6.83,16.15-15.29,20.06c-5.07,2.34-10.55,4.01-16.01,5.26
	c-5.21,1.19-10.63,1.42-16.11,2.1c0,5.31,0,10.28,0,16.45c11.68-0.54,23.15-0.53,34.47-1.87c3.93-0.47,8.6-3.42,11-6.67
	c18.89-25.45,36.97-51.45,48.74-81.18c1.01-2.54,1.52-5.44,1.56-8.19c0.8-60.16,1.6-120.32,2.13-180.48
	c0.1-11.24,5.14-18.91,14.73-23.69c5-2.49,10.45-4.3,15.9-5.61c6.18-1.49,12.58-2.07,18.91-3.06c0-5.22,0-10.17,0-15.23
	c-49.87,0-99.38,0-149.06,0c0,5.29,0,10.09,0,13.88C188.93,111.32,200.41,113.63,211.19,117.74z M280.07,418.9
	c30.68-1.05,119.17-0.26,130.24,0.13c0.58,0.02,2.67,0.14,4.32-1.17c1.1-0.88,1.72-2.25,2.17-4.09c3.69-15.27,7.58-30.5,11.13-45.81
	c2.3-9.9,4.15-19.9,6.23-30.05c-5.26-0.95-9.75-1.76-14.45-2.61c-1.65,3.2-3.06,6.08-4.61,8.88c-5.94,10.75-11.29,21.89-18.04,32.11
	c-8.49,12.87-20.55,21.38-36.51,21.79c-20.14,0.52-40.3,0.08-60.45,0.22c-1.9,0.01-4.24,0.64-7.07,1.83
	c-9.55,4.02-14.54,13.05-17.02,18.92C276.65,419.03,278.17,418.96,280.07,418.9z"/>
</svg>
