<svg xmlns="http://www.w3.org/2000/svg" width="13" height="13" viewBox="0 0 13 13" fill="none">
<g clip-path="url(#clip0_554_8011)">
<path d="M13 1.83387C13.0004 1.69548 12.9564 1.56062 12.8745 1.44906C12.7926 1.3375 12.6771 1.25511 12.545 1.21399L8.73167 0.00953534C8.72431 0.00736868 8.71694 0.00693534 8.71001 0.00541868L8.69852 0.00325201C8.6696 -0.000986709 8.64011 0.00070884 8.61186 0.00823534H8.60536L4.33486 1.2896L0.845006 0.187635C0.747664 0.157023 0.644483 0.149758 0.543812 0.166429C0.443141 0.1831 0.347809 0.223239 0.265532 0.283597C0.183255 0.343954 0.116344 0.422835 0.0702152 0.513855C0.0240858 0.604875 3.3933e-05 0.705477 6.12423e-06 0.807519V11.1653C-0.000596436 11.3038 0.0432798 11.4389 0.125183 11.5507C0.207086 11.6625 0.322694 11.7451 0.455006 11.7862L4.26834 12.9907C4.30985 13.0035 4.35423 13.0035 4.39574 12.9907L8.66537 11.7098L12.1537 12.8117C12.2176 12.8321 12.2844 12.8425 12.3513 12.8425C12.5233 12.8416 12.6879 12.7728 12.8093 12.651C12.9307 12.5293 12.999 12.3644 12.9994 12.1925L13 1.83387ZM0.43334 11.1653V0.807519C0.433317 0.773392 0.441357 0.739742 0.456803 0.709311C0.47225 0.67888 0.494666 0.652528 0.522226 0.632402C0.549787 0.612275 0.581711 0.598944 0.6154 0.593493C0.649089 0.588042 0.683589 0.590627 0.71609 0.601035L4.11667 1.67505V10.179C4.05998 10.178 4.00516 10.1993 3.96411 10.2384C3.92307 10.2775 3.8991 10.3313 3.89742 10.3879C3.89573 10.4446 3.91647 10.4997 3.95512 10.5412C3.99378 10.5826 4.04724 10.6072 4.10389 10.6095H4.11667V12.4872L0.585006 11.372C0.541022 11.3581 0.502597 11.3306 0.47532 11.2935C0.448043 11.2563 0.433337 11.2114 0.43334 11.1653ZM4.55001 12.4917V10.6067C4.63581 10.6002 4.72117 10.5898 4.80589 10.5749C4.83387 10.5697 4.86057 10.5591 4.88445 10.5436C4.90833 10.5282 4.92894 10.5081 4.94508 10.4847C4.96123 10.4613 4.9726 10.4349 4.97855 10.4071C4.9845 10.3793 4.98491 10.3505 4.97976 10.3225C4.97461 10.2946 4.964 10.2679 4.94854 10.244C4.93307 10.2201 4.91305 10.1995 4.88962 10.1834C4.86619 10.1672 4.83981 10.1558 4.81199 10.1499C4.78416 10.1439 4.75544 10.1435 4.72746 10.1487C4.67112 10.1591 4.61111 10.1658 4.55001 10.1703V1.67744L8.45001 0.507435V2.6065C8.20734 2.6169 7.96727 2.65785 7.73501 2.72849C7.70609 2.73551 7.67894 2.74841 7.65523 2.7664C7.63152 2.78438 7.61177 2.80705 7.59721 2.83299C7.58265 2.85894 7.57359 2.88761 7.57059 2.91722C7.5676 2.94682 7.57073 2.97672 7.5798 3.00506C7.58887 3.0334 7.60368 3.05957 7.6233 3.08193C7.64293 3.1043 7.66695 3.12238 7.69387 3.13506C7.72079 3.14773 7.75003 3.15472 7.77977 3.1556C7.80952 3.15648 7.83912 3.15122 7.86674 3.14015C8.05681 3.08231 8.2533 3.04818 8.45174 3.03854V11.3217L4.55001 12.4917ZM12.4781 12.3665C12.4507 12.3868 12.4188 12.4003 12.3852 12.4058C12.3515 12.4113 12.317 12.4088 12.2846 12.3983L8.88334 11.3241V3.04374C9.07691 3.0613 9.26627 3.11056 9.44386 3.18955C9.49621 3.21328 9.55584 3.21525 9.60964 3.19501C9.66343 3.17478 9.70699 3.134 9.73072 3.08165C9.75446 3.0293 9.75642 2.96967 9.73619 2.91587C9.71595 2.86207 9.67517 2.81852 9.62282 2.79479C9.38881 2.69105 9.13864 2.62853 8.88334 2.60997V0.511769L12.415 1.62717C12.459 1.641 12.4974 1.6685 12.5247 1.70568C12.552 1.74285 12.5667 1.78776 12.5667 1.83387V12.1916C12.5669 12.261 12.5342 12.326 12.4781 12.3665Z" fill="#fcd1ba"/>
<path d="M11.8524 7.86348C11.8118 7.82286 11.7567 7.80004 11.6992 7.80004C11.6418 7.80004 11.5867 7.82286 11.546 7.86348L10.8326 8.57696L10.1191 7.86348C10.0782 7.82401 10.0235 7.80217 9.96667 7.80266C9.90986 7.80316 9.85552 7.82594 9.81535 7.86612C9.77518 7.90629 9.75239 7.96063 9.7519 8.01744C9.7514 8.07425 9.77324 8.12898 9.81271 8.16984L10.5262 8.88333L9.81271 9.59681C9.79202 9.6168 9.77551 9.6407 9.76415 9.66714C9.7528 9.69357 9.74682 9.722 9.74657 9.75077C9.74632 9.77954 9.7518 9.80807 9.7627 9.8347C9.77359 9.86133 9.78968 9.88552 9.81002 9.90586C9.83037 9.92621 9.85456 9.94229 9.88119 9.95319C9.90781 9.96408 9.93634 9.96956 9.96511 9.96931C9.99388 9.96906 10.0223 9.96309 10.0487 9.95173C10.0752 9.94038 10.0991 9.92387 10.1191 9.90318L10.8326 9.18969L11.546 9.90318C11.5869 9.94264 11.6416 9.96448 11.6984 9.96399C11.7553 9.9635 11.8096 9.94071 11.8498 9.90054C11.8899 9.86037 11.9127 9.80602 11.9132 9.74921C11.9137 9.6924 11.8919 9.63767 11.8524 9.59681L11.1389 8.88333L11.8524 8.16984C11.893 8.12921 11.9158 8.07411 11.9158 8.01666C11.9158 7.95921 11.893 7.90411 11.8524 7.86348ZM2.16199 6.93333H2.16351C2.22071 6.93333 2.27559 6.91071 2.31618 6.8704C2.35677 6.8301 2.37978 6.77538 2.38018 6.71818V6.65556C2.38256 6.53119 2.38256 6.40661 2.38256 6.28333C2.38256 6.22586 2.35973 6.17075 2.3191 6.13012C2.27847 6.08949 2.22336 6.06666 2.16589 6.06666C2.10843 6.06666 2.05332 6.08949 2.01269 6.13012C1.97205 6.17075 1.94923 6.22586 1.94923 6.28333C1.94923 6.40553 1.94923 6.52881 1.94728 6.65166V6.71449C1.94699 6.74296 1.95232 6.77121 1.96296 6.79762C1.9736 6.82403 1.98934 6.84809 2.00928 6.86841C2.02922 6.88874 2.05297 6.90493 2.07917 6.91607C2.10538 6.92721 2.13352 6.93307 2.16199 6.93333ZM2.19623 8.23333C2.22462 8.23151 2.25238 8.22411 2.27792 8.21156C2.30346 8.19901 2.32628 8.18156 2.34507 8.16019C2.36386 8.13882 2.37826 8.11396 2.38744 8.08703C2.39663 8.0601 2.40042 8.03162 2.39859 8.00323C2.38971 7.86413 2.38429 7.72156 2.38126 7.57921C2.38005 7.52175 2.35607 7.46712 2.31458 7.42734C2.2731 7.38756 2.21751 7.36589 2.16004 7.36709C2.10258 7.3683 2.04795 7.39228 2.00817 7.43377C1.96839 7.47526 1.94672 7.53085 1.94793 7.58831C1.95139 7.73824 1.95681 7.88601 1.96613 8.03096C1.96966 8.08599 1.99403 8.1376 2.03429 8.17528C2.07454 8.21296 2.12765 8.23387 2.18279 8.23376C2.18756 8.23333 2.19146 8.23333 2.19623 8.23333ZM2.51386 8.83263C2.50811 8.80406 2.49666 8.77694 2.48019 8.7529C2.46372 8.72885 2.44256 8.70838 2.418 8.69271C2.39343 8.67703 2.36595 8.66647 2.33721 8.66166C2.30846 8.65685 2.27905 8.65789 2.25071 8.66471C2.22238 8.67154 2.19571 8.68401 2.17231 8.70138C2.14891 8.71875 2.12925 8.74066 2.11452 8.7658C2.09978 8.79095 2.09027 8.8188 2.08655 8.84771C2.08283 8.87661 2.08498 8.90597 2.09288 8.93403C2.13031 9.09391 2.18104 9.25038 2.24454 9.40181C2.25511 9.42884 2.271 9.45348 2.29128 9.47425C2.31155 9.49503 2.33579 9.51152 2.36256 9.52274C2.38933 9.53397 2.41808 9.5397 2.44711 9.53959C2.47613 9.53949 2.50484 9.53356 2.53153 9.52214C2.55822 9.51073 2.58235 9.49407 2.60247 9.47315C2.6226 9.45224 2.63831 9.42749 2.64869 9.40038C2.65907 9.37327 2.66389 9.34435 2.66287 9.31534C2.66186 9.28634 2.65502 9.25783 2.64278 9.23151C2.58902 9.10228 2.54591 8.96887 2.51386 8.83263ZM3.34348 9.99288C3.23731 9.942 3.13807 9.87778 3.04816 9.80178C3.02651 9.78328 3.00142 9.76923 2.97434 9.76043C2.94726 9.75163 2.91871 9.74825 2.89032 9.75049C2.86193 9.75272 2.83426 9.76052 2.80889 9.77345C2.78352 9.78638 2.76094 9.80417 2.74244 9.82583C2.70509 9.86956 2.68664 9.92633 2.69115 9.98367C2.69566 10.041 2.72276 10.0942 2.76649 10.1315C2.88451 10.2316 3.01485 10.3161 3.15433 10.3831C3.20579 10.4062 3.26424 10.4084 3.31726 10.3891C3.37027 10.3698 3.41367 10.3306 3.43822 10.2798C3.46277 10.229 3.46654 10.1706 3.44873 10.1171C3.43091 10.0635 3.39292 10.019 3.34283 9.99309L3.34348 9.99288ZM5.67589 9.57059C5.61209 9.65545 5.53994 9.73369 5.46053 9.80416C5.43775 9.82251 5.41892 9.84527 5.40518 9.87109C5.39143 9.89691 5.38306 9.92525 5.38056 9.95439C5.37806 9.98353 5.38149 10.0129 5.39064 10.0407C5.39978 10.0684 5.41446 10.0941 5.43378 10.116C5.4531 10.138 5.47667 10.1558 5.50306 10.1684C5.52946 10.181 5.55813 10.1881 5.58735 10.1894C5.61657 10.1906 5.64574 10.1859 5.6731 10.1755C5.70046 10.1652 5.72543 10.1494 5.74653 10.1292C5.84812 10.0395 5.94032 9.93978 6.02169 9.83146C6.05418 9.78537 6.06746 9.72844 6.05872 9.67273C6.04997 9.61702 6.0199 9.56689 5.97485 9.53297C5.9298 9.49904 5.87332 9.48397 5.81736 9.49096C5.7614 9.49794 5.71036 9.52642 5.67503 9.57038L5.67589 9.57059ZM6.40021 8.23766C6.34387 8.22637 6.28535 8.23792 6.23752 8.26978C6.1897 8.30163 6.15649 8.35118 6.14519 8.40753C6.11768 8.54619 6.08323 8.68378 6.04184 8.81919C6.02495 8.87413 6.03057 8.93353 6.05747 8.98432C6.08437 9.03511 6.13034 9.07313 6.18528 9.09003C6.24021 9.10692 6.29961 9.1013 6.3504 9.0744C6.40119 9.0475 6.43922 9.00153 6.45611 8.94659C6.50161 8.79709 6.53974 8.64499 6.57008 8.49159C6.58105 8.43541 6.56934 8.37717 6.53752 8.32959C6.50569 8.28201 6.45633 8.24896 6.40021 8.23766ZM6.50118 6.93333H6.49338C6.4372 6.93329 6.38321 6.95508 6.34279 6.99408C6.30237 7.03309 6.27868 7.08627 6.27671 7.14241C6.27171 7.28424 6.26413 7.42596 6.25396 7.56751C6.2518 7.59596 6.25529 7.62456 6.26422 7.65166C6.27314 7.67876 6.28734 7.70383 6.30598 7.72543C6.32462 7.74704 6.34734 7.76474 6.37285 7.77754C6.39835 7.79033 6.42613 7.79796 6.45459 7.79999H6.47063C6.52545 7.80014 6.57829 7.7795 6.6185 7.74222C6.65871 7.70495 6.68329 7.65382 6.68729 7.59914C6.69813 7.45224 6.70571 7.30448 6.71091 7.15758C6.71192 7.12907 6.70729 7.10064 6.69729 7.07392C6.68729 7.0472 6.67211 7.02272 6.65262 7.00189C6.63314 6.98105 6.60973 6.96427 6.58374 6.9525C6.55775 6.94074 6.52969 6.93422 6.50118 6.93333ZM6.50334 6.49999H6.50443C6.5329 6.49985 6.56106 6.4941 6.58731 6.48307C6.61356 6.47203 6.63737 6.45593 6.65739 6.43569C6.67742 6.41545 6.69325 6.39146 6.70399 6.36509C6.71474 6.33872 6.72018 6.3105 6.72001 6.28203L6.71676 5.84869C6.71642 5.7913 6.69332 5.7364 6.65253 5.69602C6.61175 5.65564 6.55662 5.6331 6.49923 5.63333C6.47066 5.63333 6.44238 5.63897 6.41601 5.64994C6.38964 5.66091 6.36569 5.67699 6.34556 5.69725C6.32542 5.7175 6.30949 5.74154 6.29868 5.76798C6.28787 5.79442 6.28239 5.82273 6.28256 5.85129L6.28581 6.28463C6.28615 6.34202 6.30925 6.39692 6.35003 6.4373C6.39082 6.47768 6.44595 6.50022 6.50334 6.49999ZM6.50594 5.19999H6.52393C6.57844 5.20018 6.63102 5.1798 6.67118 5.14294C6.71134 5.10607 6.73612 5.05542 6.74059 5.00109C6.75273 4.85419 6.77006 4.71488 6.79216 4.58683C6.80193 4.5302 6.7888 4.472 6.75566 4.42505C6.72253 4.3781 6.6721 4.34624 6.61547 4.33647C6.55884 4.3267 6.50065 4.33983 6.45369 4.37296C6.40674 4.4061 6.37488 4.45653 6.36511 4.51316C6.34084 4.65378 6.32178 4.80588 6.30856 4.96556C6.30612 4.99391 6.3093 5.02247 6.3179 5.0496C6.3265 5.07673 6.34036 5.10189 6.35869 5.12367C6.37702 5.14544 6.39946 5.16338 6.42472 5.17648C6.44999 5.18957 6.47759 5.19756 6.50594 5.19999ZM6.75923 3.87161C6.78398 3.88568 6.81126 3.89473 6.83951 3.89825C6.86776 3.90177 6.89643 3.89969 6.92388 3.89212C6.95132 3.88456 6.97701 3.87166 6.99947 3.85416C7.02192 3.83666 7.04071 3.81491 7.05476 3.79014C7.12113 3.67215 7.20401 3.56425 7.30089 3.46969C7.32147 3.44995 7.33795 3.42633 7.34939 3.4002C7.36082 3.37407 7.36698 3.34594 7.36752 3.31743C7.36806 3.28891 7.36296 3.26057 7.35252 3.23403C7.34208 3.20749 7.3265 3.18327 7.30668 3.16276C7.28685 3.14226 7.26318 3.12586 7.23701 3.11453C7.21083 3.10319 7.18268 3.09714 7.15416 3.0967C7.12565 3.09627 7.09732 3.10148 7.07082 3.11202C7.04432 3.12256 7.02016 3.13823 6.99973 3.15813C6.87317 3.28143 6.76497 3.42225 6.67841 3.57629C6.65001 3.62618 6.64257 3.6853 6.65772 3.74067C6.67288 3.79604 6.70938 3.84313 6.75923 3.87161ZM10.2692 4.00226C10.2963 4.05294 10.3425 4.09078 10.3975 4.10743C10.4525 4.12409 10.5119 4.11822 10.5626 4.09109C10.6133 4.06397 10.6511 4.01782 10.6678 3.96281C10.6844 3.90779 10.6785 3.84841 10.6514 3.79773C10.5613 3.62807 10.4523 3.46917 10.3264 3.32409C10.2885 3.28117 10.2352 3.25499 10.178 3.25129C10.1209 3.24759 10.0646 3.26667 10.0214 3.30436C9.97832 3.34204 9.95187 3.39526 9.94788 3.45239C9.94388 3.50952 9.96267 3.56591 10.0001 3.60923C10.1044 3.72966 10.1947 3.86151 10.2692 4.00226ZM10.5866 5.01301C10.6055 5.14669 10.6152 5.28168 10.6159 5.41666C10.6159 5.47412 10.6387 5.52923 10.6794 5.56987C10.72 5.6105 10.7751 5.63333 10.8326 5.63333C10.89 5.63333 10.9451 5.6105 10.9858 5.56987C11.0264 5.52923 11.0492 5.47412 11.0492 5.41666C11.0486 5.26174 11.0375 5.10705 11.0159 4.95364C11.0123 4.9252 11.0031 4.89775 10.9888 4.87289C10.9745 4.84803 10.9554 4.82625 10.9327 4.80881C10.9099 4.79137 10.8839 4.77862 10.8562 4.7713C10.8285 4.76398 10.7996 4.76223 10.7712 4.76616C10.7428 4.77008 10.7155 4.77961 10.6908 4.79418C10.6661 4.80875 10.6445 4.82808 10.6274 4.85104C10.6102 4.874 10.5978 4.90014 10.5908 4.92794C10.5838 4.95574 10.5824 4.98466 10.5866 5.01301ZM10.8326 6.93333C10.89 6.93333 10.9451 6.9105 10.9858 6.86987C11.0264 6.82923 11.0492 6.77412 11.0492 6.71666V6.28333C11.0492 6.22586 11.0264 6.17075 10.9858 6.13012C10.9451 6.08949 10.89 6.06666 10.8326 6.06666C10.7751 6.06666 10.72 6.08949 10.6794 6.13012C10.6387 6.17075 10.6159 6.22586 10.6159 6.28333V6.71666C10.6159 6.77412 10.6387 6.82923 10.6794 6.86987C10.72 6.9105 10.7751 6.93333 10.8326 6.93333Z" fill="#fcd1ba"/>
<path d="M10.8339 7.36602C10.7764 7.36602 10.7213 7.38884 10.6806 7.42948C10.64 7.47011 10.6172 7.52522 10.6172 7.58268V7.79935C10.6172 7.85681 10.64 7.91192 10.6806 7.95256C10.7213 7.99319 10.7764 8.01602 10.8339 8.01602C10.8913 8.01602 10.9464 7.99319 10.9871 7.95256C11.0277 7.91192 11.0505 7.85681 11.0505 7.79935V7.58268C11.0505 7.52522 11.0277 7.47011 10.9871 7.42948C10.9464 7.38884 10.8913 7.36602 10.8339 7.36602ZM2.03177 5.58523C2.0702 5.616 2.11796 5.63276 2.16719 5.63276C2.21642 5.63276 2.26418 5.616 2.3026 5.58523C2.35005 5.5471 3.46719 4.63992 3.46719 3.46602C3.46719 3.12123 3.33022 2.79057 3.08643 2.54678C2.84263 2.30298 2.51197 2.16602 2.16719 2.16602C1.82241 2.16602 1.49175 2.30298 1.24795 2.54678C1.00415 2.79057 0.867188 3.12123 0.867188 3.46602C0.867188 4.63992 1.98432 5.5471 2.03177 5.58523ZM2.16719 2.59935C2.39704 2.59935 2.61748 2.69066 2.78001 2.85319C2.94254 3.01572 3.03385 3.23616 3.03385 3.46602C3.03385 4.21113 2.44105 4.86373 2.16719 5.12525C1.89332 4.86373 1.30052 4.21113 1.30052 3.46602C1.30052 3.23616 1.39183 3.01572 1.55436 2.85319C1.71689 2.69066 1.93733 2.59935 2.16719 2.59935Z" fill="#fcd1ba"/>
<path d="M2.16589 3.68333C2.28555 3.68333 2.38255 3.58633 2.38255 3.46667C2.38255 3.347 2.28555 3.25 2.16589 3.25C2.04622 3.25 1.94922 3.347 1.94922 3.46667C1.94922 3.58633 2.04622 3.68333 2.16589 3.68333Z" fill="#fcd1ba"/>
</g>
<defs fill="#000000">
<clipPath id="clip0_554_8011" fill="#000000">
<rect width="13" height="13" fill="#fcd1ba"/>
</clipPath>
</defs>
</svg>