<svg width="22" height="22" viewBox="0 0 22 22" fill="none" xmlns="http://www.w3.org/2000/svg">
<path d="M5.5 4.3998C5.5 3.79231 5.99251 3.2998 6.6 3.2998H20.9C21.5075 3.2998 22 3.79231 22 4.3998C22 5.0073 21.5075 5.4998 20.9 5.4998H6.6C5.99251 5.4998 5.5 5.00725 5.5 4.3998ZM20.9 9.8998H1.1C0.492508 9.8998 0 10.3924 0 10.9998C0 11.6073 0.492508 12.0998 1.1 12.0998H20.9C21.5075 12.0998 22 11.6073 22 10.9998C22 10.3924 21.5075 9.8998 20.9 9.8998ZM20.9 16.4998H11C10.3926 16.4998 9.9 16.9923 9.9 17.5998C9.9 18.2073 10.3926 18.6998 11 18.6998H20.9C21.5075 18.6998 22 18.2073 22 17.5998C22 16.9923 21.5075 16.4998 20.9 16.4998Z" fill="#AF6F57"/>
</svg>
