<svg width="31" height="31" viewBox="0 0 31 31" fill="none" xmlns="http://www.w3.org/2000/svg">
<g clip-path="url(#clip0_896_425)">
<mask id="mask0_896_425" style="mask-type:alpha" maskUnits="userSpaceOnUse" x="0" y="0" width="31" height="31">
<path d="M31 0H0V31H31V0Z" fill="#D9D9D9"/>
</mask>
<g mask="url(#mask0_896_425)">
<path d="M7.02485 17.4863C6.0294 17.3408 5.02711 17.2461 4.02191 17.2028C3.58114 17.1757 3.00015 17.4043 2.89953 18.51C2.88076 18.7879 2.90773 19.0672 2.97938 19.3366C3.04614 19.618 3.19666 19.8727 3.41127 20.0675C3.62587 20.2624 3.89457 20.3882 4.18224 20.4287L8.47895 21.0307C8.5004 21.0341 8.52211 21.0358 8.54386 21.0358C8.62778 21.0358 8.71031 21.0144 8.78342 20.9733C8.85652 20.9324 8.91774 20.8732 8.96111 20.8018C9.00447 20.7302 9.02854 20.6488 9.03095 20.5654C9.03337 20.4818 9.01406 20.3992 8.97489 20.3254C7.56169 17.651 7.19947 17.5399 7.02485 17.4863ZM4.31792 19.4697C4.22352 19.4553 4.13564 19.4131 4.06563 19.3485C3.99561 19.2839 3.94669 19.1999 3.92517 19.1074C3.87989 18.9414 3.86106 18.7695 3.86935 18.5978C3.8709 18.4507 3.90433 18.3058 3.96737 18.1728H3.98101C5.09105 18.242 6.33935 18.3421 6.67756 18.4015C7.04305 18.888 7.36991 19.4021 7.65517 19.9392L4.31792 19.4697ZM26.9802 17.2028C25.975 17.2461 24.9727 17.3408 23.9774 17.4863C23.8027 17.5399 23.4398 17.651 22.0247 20.328C21.9855 20.4017 21.9662 20.4844 21.9687 20.568C21.971 20.6514 21.9952 20.7328 22.0384 20.8044C22.0818 20.8758 22.1431 20.9349 22.2162 20.9759C22.2893 21.017 22.3718 21.0384 22.4558 21.0384C22.4775 21.0384 22.4992 21.0367 22.5206 21.0332L26.8173 20.4313C27.105 20.3908 27.3737 20.265 27.5883 20.07C27.8029 19.8753 27.9535 19.6205 28.0201 19.3392C28.0917 19.0698 28.1186 18.7905 28.1001 18.5126C28.0014 17.4043 27.4172 17.1763 26.9802 17.2028ZM27.077 19.1074C27.0555 19.1999 27.0066 19.2839 26.9366 19.3485C26.8666 19.4131 26.7786 19.4553 26.6843 19.4697L23.347 19.9373C23.6325 19.4004 23.959 18.8864 24.3239 18.3995C24.668 18.3395 25.9176 18.2394 27.027 18.1709C27.0978 18.302 27.1342 18.4489 27.1328 18.5978C27.1412 18.7695 27.1223 18.9414 27.077 19.1074ZM22.2408 17.9371C22.1918 17.8674 22.1252 17.8117 22.0477 17.7757C21.9702 17.7396 21.8846 17.7245 21.7995 17.7317C21.7547 17.7356 17.2826 18.1192 15.5027 18.1192C13.7228 18.1192 9.25013 17.7317 9.20599 17.7317C9.12074 17.7243 9.03502 17.7392 8.95749 17.7753C8.87996 17.8113 8.81336 17.8671 8.76443 17.937C8.71549 18.0069 8.68596 18.0882 8.6788 18.1731C8.67165 18.258 8.68712 18.3432 8.72368 18.4202L10.0057 21.1269C10.0432 21.2056 10.1013 21.2727 10.1738 21.3214C10.2463 21.3702 10.3306 21.3987 10.4179 21.404L15.5001 21.6933L20.5901 21.404C20.6774 21.3988 20.7619 21.3704 20.8343 21.3217C20.9069 21.2728 20.9649 21.2056 21.0023 21.1269L22.2844 18.4202C22.3207 18.343 22.3356 18.2576 22.328 18.1728C22.3204 18.088 22.2903 18.0066 22.2408 17.9371ZM20.2428 20.4559L15.5014 20.7284L10.7626 20.4559L9.96355 18.769C11.365 18.8826 14.1434 19.0919 15.5034 19.0919C16.8634 19.0919 19.6423 18.8826 21.0445 18.769L20.2428 20.4559ZM18.2998 3.22241L19.0179 3.48979C19.2526 3.57709 19.4658 3.71348 19.643 3.88973C19.8203 4.06597 19.9576 4.278 20.0454 4.51149L20.3142 5.22837C20.3492 5.32001 20.4115 5.3989 20.4927 5.45455C20.5738 5.51021 20.67 5.54001 20.7686 5.54001C20.8672 5.54001 20.9634 5.51021 21.0445 5.45455C21.1257 5.3989 21.1879 5.32001 21.223 5.22837L21.4918 4.51408C21.5798 4.28075 21.7169 4.06887 21.894 3.89264C22.0712 3.71642 22.2841 3.57994 22.5187 3.49237L23.2366 3.22499C23.3288 3.19011 23.408 3.1282 23.464 3.04746C23.52 2.96671 23.5499 2.87097 23.5499 2.77291C23.5499 2.67485 23.52 2.57911 23.464 2.49837C23.408 2.41763 23.3288 2.35572 23.2366 2.32083L22.5187 2.05345C22.284 1.96599 22.0709 1.82948 21.8938 1.65311C21.7166 1.47676 21.5795 1.26465 21.4918 1.0311L21.2256 0.31164C21.1906 0.219994 21.1283 0.141115 21.0471 0.085459C20.966 0.0298033 20.8697 0 20.7712 0C20.6726 0 20.5764 0.0298033 20.4953 0.085459C20.414 0.141115 20.3519 0.219994 20.3168 0.31164L20.0454 1.02593C19.9577 1.25948 19.8206 1.4716 19.6434 1.64795C19.4663 1.82431 19.2532 1.96083 19.0185 2.04829L18.3005 2.31566C18.2084 2.35055 18.1291 2.41246 18.0731 2.4932C18.0172 2.57394 17.9873 2.66968 17.9873 2.76774C17.9873 2.86581 18.0172 2.96155 18.0731 3.04229C18.1291 3.12303 18.2084 3.18494 18.3005 3.21983L18.2998 3.22241ZM20.7699 1.76218C21.0107 2.18155 21.3599 2.52917 21.7813 2.76904C21.3598 3.00872 21.0105 3.3564 20.7699 3.77589C20.5287 3.3566 20.1793 3.009 19.7579 2.76904C20.1793 2.52907 20.5287 2.18147 20.7699 1.76218ZM23.7735 6.22877L24.3175 6.43156C24.4796 6.4921 24.6268 6.58648 24.7491 6.70835C24.8716 6.83022 24.9663 6.97676 25.027 7.1381L25.2308 7.67931C25.2655 7.77174 25.3278 7.85141 25.4093 7.90766C25.4908 7.9639 25.5877 7.99405 25.6869 7.99405C25.7861 7.99405 25.8828 7.9639 25.9643 7.90766C26.0458 7.85141 26.1081 7.77174 26.1428 7.67931L26.346 7.1381C26.4069 6.97672 26.5017 6.83015 26.6242 6.70828C26.7467 6.58642 26.8941 6.49206 27.0562 6.43156L27.6002 6.22877C27.6921 6.19362 27.771 6.13161 27.8268 6.0509C27.8825 5.9702 27.9123 5.87459 27.9123 5.77668C27.9123 5.67877 27.8825 5.58318 27.8268 5.50246C27.771 5.42176 27.6921 5.35975 27.6002 5.3246L27.0562 5.11922C26.8941 5.05915 26.7469 4.96508 26.6246 4.84339C26.5023 4.7217 26.4078 4.57525 26.3473 4.41397L26.1428 3.87212C26.1081 3.77969 26.0458 3.70002 25.9643 3.64377C25.8828 3.58753 25.7861 3.55738 25.6869 3.55738C25.5877 3.55738 25.4908 3.58753 25.4093 3.64377C25.3278 3.70002 25.2655 3.77969 25.2308 3.87212L25.027 4.41397C24.9663 4.57524 24.8716 4.72169 24.7491 4.84345C24.6268 4.96522 24.4796 5.05947 24.3175 5.11987L23.7729 5.32266C23.6807 5.35755 23.6015 5.41946 23.5456 5.5002C23.4896 5.58094 23.4597 5.67668 23.4597 5.77474C23.4597 5.87281 23.4896 5.96855 23.5456 6.04929C23.6015 6.13003 23.6807 6.19194 23.7729 6.22683L23.7735 6.22877ZM25.6865 5.22837C25.8346 5.44099 26.02 5.6254 26.2338 5.77281C26.0205 5.9205 25.8352 6.10461 25.6865 6.3166C25.5382 6.10448 25.3531 5.92034 25.14 5.77281C25.3535 5.62539 25.5386 5.44098 25.6865 5.22837ZM26.8148 3.22241L27.3587 3.4252C27.5208 3.48552 27.6679 3.57969 27.7904 3.70134C27.9127 3.82298 28.0075 3.96931 28.0682 4.13045L28.272 4.67166C28.3068 4.76409 28.3692 4.84376 28.4507 4.90002C28.532 4.95625 28.6289 4.9864 28.7281 4.9864C28.8273 4.9864 28.9241 4.95625 29.0056 4.90002C29.0871 4.84376 29.1494 4.76409 29.1841 4.67166L29.388 4.13045C29.4485 3.96921 29.5431 3.82277 29.6655 3.701C29.7877 3.57922 29.9348 3.48496 30.0969 3.42456L30.6415 3.22177C30.7335 3.18688 30.8129 3.12497 30.8688 3.04423C30.9247 2.96348 30.9547 2.86775 30.9547 2.76968C30.9547 2.67162 30.9247 2.57588 30.8688 2.49514C30.8129 2.4144 30.7335 2.35249 30.6415 2.3176L30.0975 2.11416C29.9356 2.05387 29.7884 1.95972 29.6661 1.83805C29.5438 1.71639 29.4492 1.57006 29.3887 1.40891L29.1847 0.867057C29.1501 0.774625 29.0877 0.694955 29.0062 0.638709C28.9247 0.582462 28.828 0.552321 28.7288 0.552321C28.6296 0.552321 28.5328 0.582462 28.4513 0.638709C28.3698 0.694955 28.3074 0.774625 28.2727 0.867057L28.0688 1.40891C28.0081 1.5701 27.9135 1.71646 27.791 1.83812C27.6687 1.95978 27.5214 2.05391 27.3593 2.11416L26.8148 2.3176C26.7227 2.35249 26.6434 2.4144 26.5874 2.49514C26.5315 2.57588 26.5015 2.67162 26.5015 2.76968C26.5015 2.86775 26.5315 2.96348 26.5874 3.04423C26.6434 3.12497 26.7227 3.18752 26.8148 3.22241ZM28.7277 2.22524C28.8764 2.43709 29.0615 2.62117 29.2744 2.76904C29.0615 2.91691 28.8764 3.10098 28.7277 3.31283C28.5794 3.10071 28.3943 2.91657 28.1812 2.76904C28.3942 2.62133 28.5793 2.43722 28.7277 2.22524ZM29.6599 27.3618C29.5309 27.3618 29.407 27.4128 29.3157 27.5036C29.2244 27.5944 29.1731 27.7176 29.1731 27.8461V29.8573C29.1731 29.9026 29.155 29.9461 29.1227 29.9783C29.0904 30.0103 29.0466 30.0284 29.001 30.0284H26.472C26.4264 30.0284 26.3826 30.0103 26.3504 29.9783C26.3181 29.9461 26.3 29.9026 26.3 29.8573V29.028C26.3 28.8995 26.2486 28.7763 26.1574 28.6855C26.0661 28.5947 25.9422 28.5436 25.8131 28.5436C25.684 28.5436 25.5602 28.5947 25.4688 28.6855C25.3775 28.7763 25.3262 28.8995 25.3262 29.028V29.8573C25.3266 30.1594 25.4474 30.4492 25.6622 30.6629C25.877 30.8765 26.1683 30.9968 26.472 30.9972H29.0036C29.3074 30.9968 29.5987 30.8765 29.8135 30.6629C30.0283 30.4492 30.1491 30.1594 30.1495 29.8573V27.8461C30.1495 27.7823 30.1367 27.719 30.1121 27.6601C30.0875 27.6012 30.0514 27.5476 30.006 27.5027C29.9604 27.4577 29.9064 27.4221 29.8471 27.3978C29.7877 27.3736 29.7241 27.3614 29.6599 27.3618ZM5.15532 28.543C5.02619 28.543 4.90236 28.594 4.81105 28.6848C4.71974 28.7756 4.66845 28.8988 4.66845 29.0274V29.8566C4.66845 29.9018 4.65042 29.9454 4.6183 29.9774C4.58617 30.0094 4.54259 30.0275 4.49707 30.0278H1.96541C1.9199 30.0275 1.87631 30.0094 1.84418 29.9774C1.81207 29.9454 1.79403 29.9018 1.79403 29.8566V27.8461C1.79403 27.7176 1.74274 27.5944 1.65143 27.5036C1.56013 27.4128 1.4363 27.3618 1.30717 27.3618C1.17805 27.3618 1.05421 27.4128 0.96291 27.5036C0.871606 27.5944 0.820312 27.7176 0.820312 27.8461V29.8573C0.820483 30.1591 0.940983 30.4487 1.15539 30.6624C1.36981 30.876 1.66062 30.9964 1.96411 30.9972H4.49578C4.79949 30.9968 5.09064 30.8765 5.30533 30.6629C5.52002 30.4491 5.6407 30.1594 5.64087 29.8573V29.028C5.64105 28.8996 5.59 28.7764 5.49897 28.6855C5.40793 28.5945 5.28433 28.5433 5.15532 28.543Z" fill="#676666"/>
<path d="M30.0601 12.1746L28.4372 11.8956C28.2001 11.852 27.9552 11.8902 27.7427 12.0037C27.5303 12.1172 27.3632 12.2994 27.2688 12.5201L27.1811 12.7139L26.0308 10.0143C25.7707 9.39529 25.3558 8.85284 24.8253 8.43861C24.2948 8.02439 23.6667 7.7522 23.0006 7.64793C20.5185 7.27305 18.0109 7.09037 15.5004 7.10156C12.9898 7.09059 10.4822 7.27348 8.00008 7.64858C7.33403 7.75278 6.70587 8.02488 6.17545 8.43899C5.64502 8.8531 5.22998 9.3954 4.96987 10.0143L3.81569 12.7164L3.73389 12.5266C3.6402 12.3049 3.47345 12.1216 3.26106 12.0068C3.04868 11.8919 2.80334 11.8525 2.56543 11.8949L0.942562 12.1746C0.679197 12.218 0.43989 12.3531 0.267273 12.5557C0.094656 12.7583 -5.96308e-05 13.0153 2.8166e-08 13.2809V13.598C0.000243152 13.8537 0.087909 14.1017 0.248588 14.3011C0.409267 14.5007 0.633397 14.6399 0.884138 14.6959L2.42521 15.042L1.7423 16.0786C1.15059 16.9742 0.835752 18.0228 0.836749 19.0946V24.6036C0.836749 26.6825 2.29214 28.0265 4.54597 28.0265H26.4546C28.7085 28.0265 30.1639 26.6832 30.1639 24.6036V19.0921C30.1649 18.0202 29.85 16.9717 29.2583 16.076L28.5754 15.0427L30.1113 14.6978C30.3628 14.6425 30.5878 14.5037 30.7493 14.3041C30.9109 14.1045 30.9992 13.8562 31 13.5999V13.2828C31.0008 13.0172 30.9066 12.76 30.7346 12.557C30.5624 12.3541 30.3233 12.2185 30.0601 12.1746ZM1.09381 13.7478C1.05964 13.7402 1.02912 13.7212 1.00728 13.6939C0.985445 13.6667 0.973605 13.6328 0.97372 13.598V13.2809C0.973192 13.2443 0.986082 13.2088 1.00998 13.181C1.03387 13.1531 1.06714 13.1349 1.10355 13.1297L2.73355 12.8495C2.75642 12.8454 2.78 12.8497 2.79993 12.8615C2.81986 12.8734 2.83479 12.8921 2.84196 12.9141L3.23989 13.8091L2.99711 14.1773L1.09381 13.7478ZM29.1901 23.0988H3.0445C2.91537 23.0988 2.79154 23.1498 2.70024 23.2408C2.60893 23.3316 2.55764 23.4548 2.55764 23.5832C2.55764 23.7117 2.60893 23.8349 2.70024 23.9257C2.79154 24.0165 2.91537 24.0676 3.0445 24.0676H29.1901V24.6036C29.1901 26.1394 28.1678 27.0578 26.4546 27.0578H4.54597C2.83287 27.0578 1.81046 26.14 1.81046 24.6036V19.0921C1.80979 18.2091 2.06908 17.3451 2.55634 16.6069L4.09093 14.278H25.3317C25.4608 14.278 25.5846 14.227 25.6759 14.1362C25.7672 14.0454 25.8185 13.9222 25.8185 13.7936C25.8185 13.6653 25.7672 13.542 25.6759 13.4512C25.5846 13.3603 25.4608 13.3093 25.3317 13.3093H4.62258L5.86634 10.3953C6.06209 9.92778 6.37503 9.51797 6.77528 9.20501C7.17554 8.89204 7.64975 8.68638 8.15264 8.60764C10.5841 8.23915 13.0408 8.05951 15.5004 8.07031C17.9599 8.05886 20.4165 8.23788 22.848 8.6057C23.3511 8.68462 23.8254 8.89058 24.2257 9.2039C24.626 9.51721 24.9389 9.92741 25.1343 10.3953L26.5572 13.7323C26.5683 13.759 26.582 13.7846 26.5981 13.8085L28.4443 16.6095C28.9315 17.3477 29.1909 18.2117 29.1901 19.0946V23.0988ZM30.0262 13.598C30.0262 13.6335 30.0139 13.668 29.9913 13.6955C29.9687 13.723 29.9373 13.742 29.9023 13.7491L28.0055 14.1753L27.7627 13.8072L28.1632 12.9031C28.1723 12.8835 28.1875 12.8674 28.2066 12.8574C28.2258 12.8473 28.2477 12.8439 28.269 12.8475L29.8958 13.1278C29.9322 13.133 29.9655 13.1512 29.9894 13.1791C30.0133 13.2068 30.0262 13.2424 30.0256 13.2789L30.0262 13.598Z" fill="#676666"/>
</g>
</g>
<defs>
<clipPath id="clip0_896_425">
<rect width="31" height="31" fill="white"/>
</clipPath>
</defs>
</svg>
