<svg width="31" height="31" viewBox="0 0 31 31" fill="none" xmlns="http://www.w3.org/2000/svg">
<g clip-path="url(#clip0_896_416)">
<mask id="mask0_896_416" style="mask-type:alpha" maskUnits="userSpaceOnUse" x="0" y="0" width="31" height="31">
<path d="M31 0H0V31H31V0Z" fill="#D9D9D9"/>
</mask>
<g mask="url(#mask0_896_416)">
<path d="M29.4481 26.7915C29.4488 26.7689 29.4492 26.7464 29.4492 26.7242C29.4486 26.1573 29.2307 25.6139 28.8433 25.2131C28.4558 24.8123 27.9306 24.5869 27.3827 24.5862V14.6983L29.2426 13.2552C29.3071 13.2051 29.3595 13.14 29.3954 13.0651C29.4313 12.9903 29.4497 12.9078 29.4492 12.8243C29.4487 12.7407 29.4292 12.6585 29.3925 12.5841C29.3557 12.5098 29.3026 12.4453 29.2374 12.3961L24.7995 9.0409V3.2069C24.9365 3.2069 25.0679 3.15058 25.1648 3.05035C25.2616 2.95011 25.3161 2.81417 25.3161 2.67242V0.534483C25.3161 0.392729 25.2616 0.256781 25.1648 0.156546C25.0679 0.0563114 24.9365 0 24.7995 0H19.6331C19.496 0 19.3647 0.0563114 19.2678 0.156546C19.1709 0.256781 19.1164 0.392729 19.1164 0.534483V2.67242C19.1164 2.81417 19.1709 2.95011 19.2678 3.05035C19.3647 3.15058 19.496 3.2069 19.6331 3.2069V5.13511L15.8048 2.24089C15.7164 2.17399 15.6095 2.13794 15.5 2.13794C15.3905 2.13794 15.2836 2.17399 15.1952 2.24089L1.76262 12.3961C1.69742 12.4453 1.6443 12.5098 1.60752 12.5841C1.57073 12.6585 1.55132 12.7407 1.55081 12.8243C1.55031 12.9078 1.56874 12.9903 1.60462 13.0651C1.64051 13.14 1.69286 13.2051 1.75745 13.2552L3.61734 14.6983V24.5862C3.06945 24.5869 2.54417 24.8123 2.15675 25.2131C1.76934 25.6139 1.55141 26.1573 1.55079 26.7242C1.55079 26.7464 1.55118 26.7689 1.55195 26.7915C1.06457 26.9212 0.639653 27.2303 0.356938 27.661C0.0742225 28.0917 -0.0468634 28.6143 0.0163987 29.1308C0.0796608 29.6474 0.322923 30.1222 0.700543 30.4663C1.07816 30.8105 1.5642 31.0003 2.06743 31H28.9326C29.4358 31.0003 29.9218 30.8105 30.2994 30.4663C30.6771 30.1222 30.9203 29.6474 30.9836 29.1308C31.0469 28.6143 30.9257 28.0917 30.6431 27.661C30.3604 27.2303 29.9354 26.9212 29.4481 26.7915ZM20.1497 1.06897H24.2828V2.13793H20.1497V1.06897ZM20.6664 5.8793V3.2069H23.7661V8.25977L20.6175 5.8793H20.6664ZM15.5 3.33437L28.0643 12.8332L26.8612 13.7666L15.8039 5.44705C15.7156 5.38059 15.6091 5.34479 15.5 5.34479C15.3909 5.34479 15.2844 5.38059 15.1961 5.44705L4.13869 13.7666L2.9357 12.8332L15.5 3.33437ZM1.03416 28.862C1.03444 28.5815 1.14128 28.3122 1.33164 28.1122C1.52202 27.9123 1.78069 27.7977 2.05193 27.793C2.07834 27.7969 2.10598 27.8002 2.13292 27.802C2.21853 27.8075 2.30414 27.791 2.38203 27.7538C2.45991 27.7166 2.52761 27.66 2.57903 27.5888C2.63044 27.5178 2.66395 27.4347 2.67651 27.3469C2.68908 27.2591 2.68034 27.1694 2.65104 27.086C2.60829 26.9704 2.58561 26.8479 2.58407 26.7242C2.58439 26.4407 2.69336 26.169 2.88707 25.9687C3.08077 25.7682 3.3434 25.6555 3.61734 25.6552V29.931H2.06743C1.79349 29.9308 1.53086 29.818 1.33716 29.6175C1.14345 29.4172 1.03448 29.1454 1.03416 28.862ZM23.2496 29.931H17.0499V18.1725H23.2496V29.931ZM24.2828 29.931V17.638C24.2828 17.4961 24.2284 17.3603 24.1316 17.26C24.0347 17.1598 23.9032 17.1035 23.7661 17.1035H16.5333C16.3963 17.1035 16.2648 17.1598 16.1679 17.26C16.071 17.3603 16.0167 17.4961 16.0167 17.638V29.931H4.65062V14.7032L15.5 6.5402L26.3494 14.7032V29.931H24.2828ZM28.9326 29.931H27.3827V25.6552C27.6566 25.6555 27.9192 25.7682 28.113 25.9687C28.3066 26.169 28.4156 26.4407 28.4159 26.7242C28.4145 26.8481 28.3917 26.9706 28.349 27.0864C28.3197 27.1697 28.3109 27.2593 28.3235 27.3472C28.3361 27.435 28.3695 27.5182 28.4209 27.5892C28.4723 27.6603 28.5401 27.7168 28.618 27.754C28.6958 27.7912 28.7814 27.8079 28.8671 27.8022C28.8941 27.8004 28.9204 27.7972 28.9469 27.7933C29.221 27.7955 29.4841 27.9102 29.6764 28.1121C29.8688 28.3141 29.9757 28.5869 29.9736 28.8703C29.9716 29.1538 29.8608 29.4249 29.6654 29.6239C29.4703 29.8229 29.2066 29.9332 28.9326 29.931Z" fill="#676666"/>
<path d="M13.4351 17.1045H7.23539C7.09837 17.1045 6.96696 17.1608 6.87007 17.261C6.77318 17.3613 6.71875 17.4972 6.71875 17.639V25.1217C6.71875 25.2634 6.77318 25.3994 6.87007 25.4997C6.96696 25.5999 7.09837 25.6562 7.23539 25.6562H13.4351C13.5721 25.6562 13.7035 25.5999 13.8004 25.4997C13.8972 25.3994 13.9517 25.2634 13.9517 25.1217V17.639C13.9517 17.4972 13.8972 17.3613 13.8004 17.261C13.7035 17.1608 13.5721 17.1045 13.4351 17.1045ZM12.9184 20.8458H10.8519V18.1735H12.9184V20.8458ZM9.81857 18.1735V20.8458H7.75203V18.1735H9.81857ZM7.75203 21.9148H9.81857V24.5872H7.75203V21.9148ZM10.8519 24.5872V21.9148H12.9184V24.5872H10.8519Z" fill="#676666"/>
<path d="M19.0761 23.7221C19.1853 23.4493 19.0601 23.1367 18.7965 23.0237C18.5329 22.9108 18.2307 23.0402 18.1215 23.313C18.0123 23.5857 18.1375 23.8983 18.4011 24.0113C18.6647 24.1243 18.9669 23.9948 19.0761 23.7221Z" fill="#676666"/>
</g>
</g>
<defs>
<clipPath id="clip0_896_416">
<rect width="31" height="31" fill="white"/>
</clipPath>
</defs>
</svg>
