<svg width="31" height="31" viewBox="0 0 31 31" fill="none" xmlns="http://www.w3.org/2000/svg">
<g clip-path="url(#clip0_896_441)">
<path d="M27.8572 0H7.91599C7.76914 0 7.6283 0.0583225 7.52446 0.162136C7.42062 0.265952 7.36229 0.406754 7.36229 0.55357C7.36229 0.700386 7.42062 0.841188 7.52446 0.945001C7.6283 1.04882 7.76914 1.10714 7.91599 1.10714H27.8572C28.397 1.10773 28.9145 1.32238 29.296 1.70399C29.6776 2.08562 29.8921 2.60301 29.8927 3.14261V23.0783C29.8927 23.2251 29.9509 23.366 30.0548 23.4697C30.1586 23.5736 30.2994 23.6318 30.4463 23.6318C30.5931 23.6318 30.734 23.5736 30.8378 23.4697C30.9416 23.366 31 23.2251 31 23.0783V3.14261C30.9991 2.3095 30.6678 1.51076 30.0785 0.921617C29.4894 0.332468 28.6905 0.00102571 27.8572 0ZM30.8372 27.4654L28.2488 24.8774C28.1976 24.8245 28.1365 24.7823 28.069 24.7534C28.0014 24.7243 27.9288 24.7091 27.8553 24.7084C27.7817 24.7078 27.7088 24.7219 27.6408 24.7496C27.5727 24.7775 27.5109 24.8186 27.4589 24.8705C27.407 24.9226 27.3658 24.9843 27.338 25.0524C27.3101 25.1203 27.2961 25.1933 27.2968 25.2668C27.2974 25.3403 27.3127 25.4129 27.3417 25.4804C27.3707 25.548 27.4129 25.6091 27.4657 25.6601L29.1096 27.3043H5.72558C5.18576 27.3038 4.66816 27.0892 4.28645 26.7075C3.90473 26.326 3.69008 25.8085 3.68965 25.2687V1.88989L5.33412 3.53399C5.43855 3.63483 5.57841 3.69061 5.72358 3.68936C5.86876 3.6881 6.00763 3.62988 6.11029 3.52724C6.21295 3.42461 6.27118 3.28577 6.27245 3.14062C6.2737 2.99548 6.2179 2.85564 6.11704 2.75124L3.52797 0.16275C3.47655 0.111281 3.41548 0.0704497 3.34827 0.0425917C3.28105 0.0147337 3.209 0.000394888 3.13623 0.000394888C3.06347 0.000394888 2.99142 0.0147337 2.9242 0.0425917C2.85699 0.0704497 2.79592 0.111281 2.74449 0.16275L0.155429 2.75124C0.0545688 2.85564 -0.00124061 2.99548 2.09309e-05 3.14062C0.00128248 3.28577 0.0595139 3.42461 0.162173 3.52724C0.264832 3.62988 0.403705 3.6881 0.548882 3.68936C0.694058 3.69061 0.833922 3.63483 0.938349 3.53399L2.58282 1.88989V25.2687C2.58369 26.1019 2.91509 26.9005 3.50428 27.4896C4.09347 28.0786 4.89234 28.41 5.72558 28.4109H29.1096L27.4652 30.0549C27.4138 30.1064 27.373 30.1674 27.3452 30.2346C27.3175 30.3019 27.3031 30.3738 27.3031 30.4465C27.3031 30.5192 27.3176 30.5912 27.3454 30.6584C27.3733 30.7255 27.4141 30.7866 27.4655 30.838C27.5169 30.8893 27.578 30.9301 27.6452 30.9579C27.7125 30.9858 27.7844 31 27.8571 31C27.9298 31 28.0019 30.9857 28.0691 30.9578C28.1362 30.93 28.1973 30.8892 28.2488 30.8376L30.8372 28.2491C30.9403 28.1448 30.9981 28.004 30.9981 27.8572C30.9981 27.7105 30.9403 27.5697 30.8372 27.4654Z" fill="#676666"/>
<path d="M9.84667 8.99393C9.69982 8.99393 9.55899 9.05226 9.45515 9.15608C9.35131 9.25989 9.29297 9.40069 9.29297 9.5475V20.2956C9.29297 20.4424 9.35131 20.5832 9.45515 20.6871C9.55899 20.7909 9.69982 20.8492 9.84667 20.8492C9.99352 20.8492 10.1343 20.7909 10.2382 20.6871C10.342 20.5832 10.4004 20.4424 10.4004 20.2956V12.2877C10.4004 11.812 10.5894 11.3558 10.9258 11.0194C11.2622 10.6831 11.7185 10.4941 12.1943 10.4941C12.6701 10.4941 13.1264 10.6831 13.4628 11.0194C13.7993 11.3558 13.9883 11.812 13.9883 12.2877V20.2956C13.9883 20.4424 14.0467 20.5832 14.1504 20.6871C14.2542 20.7909 14.3952 20.8492 14.542 20.8492C14.6888 20.8492 14.8297 20.7909 14.9335 20.6871C15.0374 20.5832 15.0956 20.4424 15.0956 20.2956V12.2877C15.0915 12.0495 15.1348 11.8129 15.223 11.5917C15.3113 11.3705 15.4427 11.169 15.6097 10.9991C15.7767 10.8292 15.9759 10.6943 16.1956 10.6022C16.4152 10.51 16.6511 10.4626 16.8894 10.4626C17.1276 10.4626 17.3634 10.51 17.5831 10.6022C17.8028 10.6943 18.002 10.8292 18.169 10.9991C18.3359 11.169 18.4674 11.3705 18.5556 11.5917C18.644 11.8129 18.6872 12.0495 18.6831 12.2877V20.2956C18.6831 20.4424 18.7414 20.5832 18.8452 20.6871C18.9491 20.7909 19.0899 20.8492 19.2367 20.8492C19.3836 20.8492 19.5244 20.7909 19.6282 20.6871C19.7321 20.5832 19.7905 20.4424 19.7905 20.2956V12.2877C19.7846 11.6777 19.5869 11.0849 19.2252 10.5936C18.8636 10.1022 18.3563 9.73718 17.7756 9.55018C17.1947 9.36317 16.5698 9.36371 15.9892 9.55171C15.4087 9.73973 14.9023 10.1057 14.5414 10.5976C14.3121 10.2816 14.0212 10.0152 13.6863 9.81439C13.3514 9.61358 12.9794 9.48254 12.5925 9.42913C12.2057 9.37572 11.812 9.40104 11.4352 9.50357C11.0584 9.60611 10.7062 9.78374 10.3998 10.0258V9.5475C10.3998 9.40069 10.3415 9.25989 10.2376 9.15608C10.1338 9.05226 9.99352 8.99393 9.84667 8.99393ZM23.8091 5.86627C23.3057 5.86686 22.823 6.06711 22.4671 6.42308C22.1111 6.77905 21.911 7.26167 21.9105 7.76502C21.9105 7.91183 21.9689 8.05263 22.0727 8.15644C22.1766 8.26027 22.3173 8.31859 22.4642 8.31859C22.6111 8.31859 22.7519 8.26027 22.8557 8.15644C22.9596 8.05263 23.0179 7.91183 23.0179 7.76502C23.0256 7.56034 23.1122 7.36659 23.2599 7.22449C23.4074 7.0824 23.6042 7.00301 23.8091 7.00301C24.014 7.00301 24.2109 7.0824 24.3584 7.22449C24.5059 7.36659 24.5927 7.56034 24.6004 7.76502C24.6004 8.68615 23.0417 10.7028 22.0589 11.7574C21.9854 11.8362 21.9364 11.9349 21.9181 12.0412C21.8999 12.1475 21.9131 12.2569 21.9562 12.3558C21.9992 12.4547 22.0703 12.5389 22.1605 12.598C22.2507 12.6571 22.3564 12.6885 22.4642 12.6885H25.1541C25.301 12.6885 25.4418 12.6301 25.5456 12.5263C25.6495 12.4225 25.7077 12.2817 25.7077 12.1349C25.7077 11.9881 25.6495 11.8473 25.5456 11.7435C25.4418 11.6396 25.301 11.5813 25.1541 11.5813H23.6768C24.5229 10.5456 25.7077 8.89374 25.7077 7.76446C25.7073 7.26111 25.5071 6.7785 25.1513 6.42252C24.7953 6.06655 24.3126 5.86685 23.8091 5.86627Z" fill="#676666"/>
</g>
<defs>
<clipPath id="clip0_896_441">
<rect width="31" height="31" fill="white"/>
</clipPath>
</defs>
</svg>
