<svg width="35" height="33" viewBox="0 0 35 33" fill="none" xmlns="http://www.w3.org/2000/svg">
<path d="M29.9268 16.6569V7.89122C29.9268 5.75903 28.1548 4.02441 25.9769 4.02441H8.90969C6.73167 4.02441 4.95976 5.75908 4.95976 7.89122V16.77C3.9048 17.8498 3.25586 19.3127 3.25586 20.9211V27.5678C3.25586 28.7879 4.26981 29.7805 5.51617 29.7805C6.76249 29.7805 7.77644 28.7879 7.77644 27.5678V26.8813H27.2237V27.5678C27.2237 28.7879 28.2377 29.7805 29.4839 29.7805C30.7303 29.7805 31.7442 28.788 31.7442 27.5678V20.9211C31.7442 19.2557 31.0485 17.7464 29.9268 16.6569ZM8.90969 5.11382H25.9769C27.5412 5.11382 28.814 6.35978 28.814 7.89122V15.7996C28.4709 15.5928 28.1079 15.4196 27.7301 15.2826V13.4713C27.7301 11.8655 26.3955 10.5591 24.7553 10.5591H19.9185C18.9227 10.5591 18.0404 11.041 17.5 11.7786C16.9598 11.041 16.0774 10.5591 15.0817 10.5591H10.2449C8.60461 10.5591 7.27011 11.8654 7.27011 13.4713V15.2826C6.85023 15.4349 6.44867 15.6317 6.07265 15.8697V7.89122C6.07259 6.35978 7.34528 5.11382 8.90969 5.11382ZM9.39494 14.9113C9.05024 14.9113 8.71217 14.9397 8.38282 14.9934V13.4713C8.38282 12.4662 9.21811 11.6485 10.2448 11.6485H15.0816C16.1083 11.6485 16.9436 12.4662 16.9436 13.4713V14.9113L9.39494 14.9113ZM18.0565 13.4712C18.0565 12.4661 18.8917 11.6484 19.9185 11.6484H24.7552C25.782 11.6484 26.6172 12.4661 26.6172 13.4712V14.9934C26.2828 14.9387 25.9442 14.9113 25.6051 14.9112H18.0565V13.4712ZM9.39494 16.0006H25.6051C28.3766 16.0006 30.6314 18.208 30.6314 20.9211V22.5371H25.0508C24.7435 22.5371 24.4943 22.7811 24.4943 23.0818C24.4943 23.3826 24.7435 23.6265 25.0508 23.6265H30.6314V25.792H4.36869V23.6265H19.4866C19.794 23.6265 20.043 23.3826 20.043 23.0818C20.043 22.7811 19.794 22.5371 19.4866 22.5371H4.36869V20.9211C4.36869 18.208 6.62345 16.0006 9.39494 16.0006ZM6.66361 27.5678C6.66361 28.1872 6.14888 28.6912 5.51617 28.6912C4.88348 28.6912 4.36869 28.1872 4.36869 27.5678V26.8813H6.66361V27.5678ZM29.4839 28.6912C28.8512 28.6912 28.3364 28.1872 28.3364 27.5678V26.8813H30.6314V27.5678C30.6314 28.1872 30.1167 28.6912 29.4839 28.6912Z" fill="#676666"/>
</svg>
