<svg width="31" height="31" viewBox="0 0 31 31" fill="none" xmlns="http://www.w3.org/2000/svg">
<g clip-path="url(#clip0_896_444)">
<mask id="mask0_896_444" style="mask-type:alpha" maskUnits="userSpaceOnUse" x="0" y="0" width="31" height="31">
<path d="M31 0H0V31H31V0Z" fill="white"/>
</mask>
<g mask="url(#mask0_896_444)">
<mask id="mask1_896_444" style="mask-type:alpha" maskUnits="userSpaceOnUse" x="0" y="0" width="31" height="31">
<path d="M31 0H0V31H31V0Z" fill="white"/>
</mask>
<g mask="url(#mask1_896_444)">
<path d="M29.45 21.1833V19.6333H29.9667C30.2408 19.6333 30.5036 19.5244 30.6974 19.3307C30.8911 19.1369 31 18.8741 31 18.6V18.0833C31 17.5353 30.7822 17.0096 30.3947 16.6219C30.0071 16.2344 29.4814 16.0167 28.9333 16.0167H25.5802C25.2532 15.3937 24.7623 14.872 24.1604 14.5077C23.5586 14.1435 22.8686 13.9506 22.165 13.95H16.4817C15.9401 13.9229 15.3987 14.0093 14.8924 14.2034C14.3861 14.3977 13.9258 14.6955 13.5413 15.0779C13.4575 15.0159 13.376 14.9509 13.2969 14.8831C11.745 13.5811 9.77544 12.8829 7.75 12.9167H5.68333V3.61669C5.68333 3.47966 5.73776 3.34825 5.83466 3.25134C5.93155 3.15446 6.06297 3.10003 6.2 3.10003H8.959C9.09747 3.10003 9.23077 3.15583 9.32738 3.25503L10.0616 3.98921C9.56967 4.62135 9.30178 5.39904 9.3 6.20003C9.3 6.47408 9.40887 6.73691 9.60265 6.9307C9.79644 7.12448 10.0593 7.23336 10.3333 7.23336H15.5C15.7554 7.23043 16.0009 7.1348 16.191 6.96429C16.3812 6.79378 16.5027 6.55999 16.5333 6.30646C16.5468 5.41402 16.235 4.54718 15.6563 3.86765C15.0776 3.18812 14.2715 2.74229 13.3884 2.61333C13.2737 2.59949 13.1583 2.59104 13.0427 2.58801L11.5217 1.06074C11.186 0.723134 10.7866 0.455535 10.3467 0.273452C9.90677 0.0913709 9.43509 -0.00156961 8.959 2.00525e-05H6.2C5.24113 0.00111402 4.32185 0.382506 3.64384 1.06053C2.96582 1.73854 2.58443 2.65782 2.58333 3.61669V12.9167H2.06667C1.51855 12.9167 0.992887 13.1344 0.605312 13.5219C0.217738 13.9096 0 14.4353 0 14.9833V15.5C0 15.7741 0.108869 16.0369 0.302657 16.2307C0.496444 16.4244 0.759277 16.5333 1.03333 16.5333H1.55V21.1833C1.55114 22.3097 1.83568 23.4177 2.37742 24.4051C2.91915 25.3926 3.70068 26.2279 4.65 26.8341V27.9H4.13333C3.72225 27.9 3.328 28.0633 3.03732 28.354C2.74664 28.6446 2.58333 29.039 2.58333 29.45V29.9667H0.516667C0.379638 29.9667 0.248222 30.0212 0.151328 30.118C0.0544343 30.2149 0 30.3463 0 30.4833C0 30.6204 0.0544343 30.7517 0.151328 30.8487C0.248222 30.9456 0.379638 31 0.516667 31H30.4833C30.6204 31 30.7517 30.9456 30.8486 30.8487C30.9456 30.7517 31 30.6204 31 30.4833C31 30.3463 30.9456 30.2149 30.8486 30.118C30.7517 30.0212 30.6204 29.9667 30.4833 29.9667H28.4167V29.45C28.4167 29.039 28.2534 28.6446 27.9626 28.354C27.672 28.0633 27.2778 27.9 26.8667 27.9H26.35V26.8341C27.2994 26.2279 28.0808 25.3926 28.6226 24.4051C29.1643 23.4177 29.4488 22.3097 29.45 21.1833ZM29.9667 18.0833V18.6H26.04V17.825C26.04 17.5646 26.0137 17.3052 25.961 17.05H28.9333C29.2074 17.05 29.4703 17.1589 29.664 17.3526C29.8578 17.5465 29.9667 17.8092 29.9667 18.0833ZM24.7881 16.7312C24.9325 17.0778 25.0068 17.4495 25.0067 17.825V23.7667C25.0067 23.9037 24.9523 24.0351 24.8553 24.1321C24.7584 24.229 24.627 24.2833 24.49 24.2833H20.6667C20.5296 24.2833 20.3983 24.229 20.3014 24.1321C20.2044 24.0351 20.15 23.9037 20.15 23.7667V17.825C20.1503 17.2912 20.0399 16.763 19.8259 16.2738C19.6119 15.7848 19.2988 15.3454 18.9064 14.9833H22.165C22.726 14.9833 23.2743 15.1492 23.7411 15.4602C24.2079 15.7712 24.5721 16.2135 24.7881 16.7312ZM18.0833 17.825C18.0851 17.5867 18.0381 17.3506 17.9454 17.1311C17.8095 16.8019 17.5791 16.5203 17.2833 16.3219C16.9875 16.1236 16.6395 16.0173 16.2833 16.0167C15.6612 16.0092 15.0471 15.8752 14.4785 15.623C14.8951 15.2831 15.3995 15.0683 15.9332 15.0037C16.4669 14.939 17.0082 15.0271 17.4938 15.2577C17.9794 15.4882 18.3897 15.852 18.677 16.3064C18.9643 16.7608 19.1167 17.2874 19.1167 17.825V23.7667C19.1182 23.9428 19.1508 24.118 19.2117 24.2833H18.6C18.463 24.2833 18.3316 24.229 18.2347 24.1321C18.1377 24.0351 18.0833 23.9037 18.0833 23.7667V17.825ZM15.5 6.20003H10.3333C10.3333 5.51487 10.6055 4.8578 11.09 4.37332C11.5744 3.88886 12.2315 3.61669 12.9167 3.61669C13.6018 3.61669 14.2588 3.88886 14.7433 4.37332C15.2278 4.8578 15.5 5.51487 15.5 6.20003ZM3.61667 3.61669C3.61749 2.9318 3.88992 2.27519 4.37422 1.7909C4.8585 1.30661 5.51511 1.03417 6.2 1.03335H8.959C9.29897 1.03234 9.63576 1.09876 9.94989 1.22877C10.264 1.35878 10.5492 1.54981 10.789 1.79079L11.7707 2.77504C11.425 2.88974 11.099 3.05611 10.8035 3.26846L10.058 2.52291C9.91407 2.37792 9.74286 2.26294 9.55421 2.18462C9.36556 2.10631 9.16325 2.06623 8.959 2.06669H6.2C5.78891 2.06669 5.39467 2.22998 5.10398 2.52067C4.8133 2.81135 4.65 3.20561 4.65 3.61669V12.9167H3.61667V3.61669ZM1.03333 14.9833C1.03333 14.7092 1.1422 14.4465 1.33598 14.2526C1.52977 14.0589 1.79261 13.95 2.06667 13.95H7.75C9.52578 13.9163 11.2542 14.524 12.618 15.6617C13.5814 16.4951 14.796 16.9818 16.0683 17.0443C16.3225 17.0216 16.5762 17.0908 16.7839 17.2381C16.9534 17.3863 17.05 17.5997 17.05 17.825V18.6H16.5333C14.7572 18.632 13.0288 18.0242 11.6637 16.8872C10.6336 15.9932 9.31554 15.5006 7.9515 15.5H1.03333V14.9833ZM2.58333 21.1833V16.5333H7.9515C9.0663 16.5338 10.1436 16.9361 10.9859 17.6664C12.5383 18.9679 14.5077 19.6663 16.5333 19.6333H17.05V23.7667C17.05 24.1778 17.2133 24.572 17.504 24.8626C17.7946 25.1534 18.1889 25.3167 18.6 25.3167H24.49C24.9011 25.3167 25.2954 25.1534 25.586 24.8626C25.8767 24.572 26.04 24.1778 26.04 23.7667V19.6333H28.4167V21.1833C28.413 24.3205 25.8705 26.863 22.7333 26.8667H8.26667C5.12947 26.863 2.58695 24.3205 2.58333 21.1833ZM9.39403 27.9H21.606C21.9213 28.1502 22.1814 28.463 22.37 28.8188C22.5584 29.1744 22.6713 29.5652 22.7013 29.9667H8.29818C8.32841 29.5652 8.44136 29.1744 8.62996 28.8188C8.81856 28.463 9.0787 28.1503 9.39403 27.9ZM3.61667 29.9667V29.45C3.61667 29.313 3.6711 29.1816 3.768 29.0847C3.86489 28.9878 3.9963 28.9333 4.13333 28.9333H5.16667C5.3037 28.9333 5.43511 28.879 5.532 28.7821C5.6289 28.6851 5.68333 28.5537 5.68333 28.4167V27.3833C6.417 27.6882 7.19975 27.8587 7.99387 27.8876C7.5663 28.5019 7.31247 29.2202 7.25917 29.9667H3.61667ZM25.8333 28.9333H26.8667C27.0037 28.9333 27.1351 28.9878 27.2319 29.0847C27.329 29.1816 27.3833 29.313 27.3833 29.45V29.9667H23.7434C23.6889 29.2196 23.4342 28.5009 23.0061 27.886C23.8001 27.8575 24.5826 27.6873 25.3167 27.3833V28.4167C25.3167 28.5537 25.371 28.6851 25.468 28.7821C25.5649 28.879 25.6963 28.9333 25.8333 28.9333Z" fill="#676666"/>
<path d="M8.7819 25.317C8.7819 25.1799 8.72747 25.0486 8.63057 24.9516C8.53368 24.8547 8.40225 24.8003 8.26523 24.8003C7.30637 24.7992 6.38709 24.4179 5.70906 23.7399C5.03106 23.0617 4.64967 22.1425 4.64857 21.1837C4.64857 21.0466 4.59414 20.9152 4.49724 20.8182C4.40035 20.7214 4.26892 20.667 4.1319 20.667C3.99487 20.667 3.86345 20.7214 3.76657 20.8182C3.66967 20.9152 3.61523 21.0466 3.61523 21.1837C3.6166 22.4164 4.10695 23.5984 4.97869 24.4702C5.85044 25.3419 7.03239 25.8322 8.26523 25.8337C8.40225 25.8337 8.53368 25.7791 8.63057 25.6823C8.72747 25.5854 8.7819 25.454 8.7819 25.317ZM12.3986 8.78364V11.367C12.3986 11.504 12.453 11.6354 12.5499 11.7323C12.6468 11.8292 12.7782 11.8836 12.9152 11.8836C13.0522 11.8836 13.1837 11.8292 13.2806 11.7323C13.3775 11.6354 13.4319 11.504 13.4319 11.367V8.78364C13.4319 8.64661 13.3775 8.51519 13.2806 8.41829C13.1837 8.3214 13.0522 8.26697 12.9152 8.26697C12.7782 8.26697 12.6468 8.3214 12.5499 8.41829C12.453 8.51519 12.3986 8.64661 12.3986 8.78364ZM10.3686 8.59144L9.33525 11.1748C9.28427 11.3021 9.28596 11.4444 9.33993 11.5705C9.39389 11.6965 9.49573 11.796 9.62303 11.847C9.75033 11.8979 9.89267 11.8962 10.0187 11.8423C10.1448 11.7883 10.2442 11.6865 10.2952 11.5592L11.3286 8.97584C11.3795 8.84853 11.3778 8.7062 11.3239 8.58014C11.2699 8.45408 11.1681 8.35462 11.0408 8.30366C10.9135 8.25267 10.7711 8.25437 10.6451 8.30833C10.519 8.3623 10.4196 8.46413 10.3686 8.59144ZM15.4618 8.59144C15.411 8.46413 15.3115 8.3623 15.1854 8.30833C15.0594 8.25437 14.917 8.25267 14.7897 8.30366C14.6624 8.35462 14.5605 8.45408 14.5065 8.58014C14.4527 8.7062 14.451 8.84853 14.5019 8.97584L15.5352 11.5592C15.5862 11.6865 15.6857 11.7883 15.8118 11.8423C15.9378 11.8962 16.0802 11.8979 16.2074 11.847C16.3348 11.796 16.4365 11.6965 16.4905 11.5705C16.5445 11.4444 16.5462 11.3021 16.4952 11.1748L15.4618 8.59144Z" fill="#676666"/>
</g>
</g>
</g>
<defs>
<clipPath id="clip0_896_444">
<rect width="31" height="31" fill="white"/>
</clipPath>
</defs>
</svg>
