<svg width="17" height="13" viewBox="0 0 17 13" fill="none" xmlns="http://www.w3.org/2000/svg">
<path d="M10.4314 7.19238L9.08464 8.54365C8.53853 9.09168 7.57763 9.10349 7.01971 8.54365L5.67294 7.19238L0.835938 12.0451C1.01599 12.1283 1.2145 12.178 1.42555 12.178H14.6788C14.8898 12.178 15.0883 12.1284 15.2683 12.0451L10.4314 7.19238Z" fill="#FF2626"/>
<path d="M14.6782 0.87207H1.42498C1.21393 0.87207 1.01542 0.921754 0.83543 1.00501L6.0041 6.19083C6.00445 6.19118 6.00486 6.19124 6.0052 6.19159C6.00542 6.19181 6.00556 6.1921 6.00561 6.1924L7.68623 7.87858C7.86474 8.05709 8.23853 8.05709 8.41704 7.87858L10.0973 6.19269C10.0973 6.19269 10.0977 6.19193 10.0981 6.19159C10.0981 6.19159 10.0988 6.19118 10.0992 6.19083L15.2677 1.00498C15.0877 0.921692 14.8893 0.87207 14.6782 0.87207ZM0.162027 1.66387C0.0688773 1.85225 0.0117188 2.06135 0.0117188 2.28533V10.7649C0.0117188 10.9889 0.0688145 11.198 0.161996 11.3864L5.00738 6.52527L0.162027 1.66387ZM15.9412 1.66381L11.0959 6.52527L15.9412 11.3864C16.0343 11.198 16.0915 10.9889 16.0915 10.7649V2.28533C16.0915 2.06128 16.0343 1.85218 15.9412 1.66381Z" fill="#FF2626"/>
</svg>
