<svg width="32" height="32" viewBox="0 0 32 32" fill="none" xmlns="http://www.w3.org/2000/svg">
<g id="vuesax/outline/document-upload">
<g id="document-upload">
<path id="Vector" d="M11.9993 23.6667C11.4526 23.6667 10.9993 23.2134 10.9993 22.6667V17.0801L10.0393 18.0401C9.6526 18.4267 9.0126 18.4267 8.62594 18.0401C8.23927 17.6534 8.23927 17.0134 8.62594 16.6267L11.2926 13.9601C11.5726 13.6801 12.0126 13.5867 12.3859 13.7467C12.7593 13.8934 12.9993 14.2667 12.9993 14.6667V22.6667C12.9993 23.2134 12.5459 23.6667 11.9993 23.6667Z" fill="#676666"/>
<path id="Vector_2" d="M14.6672 18.3333C14.4139 18.3333 14.1606 18.2399 13.9606 18.0399L11.2939 15.3733C10.9072 14.9866 10.9072 14.3466 11.2939 13.9599C11.6806 13.5733 12.3206 13.5733 12.7072 13.9599L15.3739 16.6266C15.7606 17.0133 15.7606 17.6533 15.3739 18.0399C15.1739 18.2399 14.9206 18.3333 14.6672 18.3333Z" fill="#676666"/>
<path id="Vector_3" d="M20.0013 30.3334H12.0013C4.7613 30.3334 1.66797 27.2401 1.66797 20.0001V12.0001C1.66797 4.76008 4.7613 1.66675 12.0013 1.66675H18.668C19.2146 1.66675 19.668 2.12008 19.668 2.66675C19.668 3.21341 19.2146 3.66675 18.668 3.66675H12.0013C5.85463 3.66675 3.66797 5.85341 3.66797 12.0001V20.0001C3.66797 26.1467 5.85463 28.3334 12.0013 28.3334H20.0013C26.148 28.3334 28.3346 26.1467 28.3346 20.0001V13.3334C28.3346 12.7867 28.788 12.3334 29.3346 12.3334C29.8813 12.3334 30.3346 12.7867 30.3346 13.3334V20.0001C30.3346 27.2401 27.2413 30.3334 20.0013 30.3334Z" fill="#676666"/>
<path id="Vector_4" d="M29.3346 14.3334H24.0013C19.4413 14.3334 17.668 12.5601 17.668 8.00007V2.66673C17.668 2.26673 17.908 1.8934 18.2813 1.74673C18.6546 1.58673 19.0813 1.68007 19.3746 1.96007L30.0413 12.6267C30.3213 12.9067 30.4146 13.3467 30.2546 13.7201C30.0946 14.0934 29.7346 14.3334 29.3346 14.3334ZM19.668 5.08007V8.00007C19.668 11.4401 20.5613 12.3334 24.0013 12.3334H26.9213L19.668 5.08007Z" fill="#676666"/>
</g>
</g>
</svg>
