<svg width="36" height="36" viewBox="0 0 36 36" fill="none" xmlns="http://www.w3.org/2000/svg">
<path d="M2.99972 34.1249C2.69972 34.1249 2.41468 34.0049 2.20468 33.7949C1.91968 33.5099 1.79975 33.0899 1.90475 32.6999L3.79476 25.6349C2.53476 23.2949 1.87472 20.6549 1.87472 17.9849C1.87472 9.08986 9.10472 1.85986 17.9997 1.85986C26.8947 1.85986 34.1247 9.08986 34.1247 17.9849C34.1247 26.8799 26.8947 34.1099 17.9997 34.1099C15.2847 34.1099 12.6298 33.4349 10.2598 32.1449L3.29974 34.0799C3.19474 34.1099 3.10472 34.1249 2.99972 34.1249ZM10.4097 29.8199C10.6047 29.8199 10.7997 29.8799 10.9797 29.9699C13.0947 31.2149 15.5247 31.8749 17.9997 31.8749C25.6497 31.8749 31.8747 25.6499 31.8747 17.9999C31.8747 10.3499 25.6497 4.12488 17.9997 4.12488C10.3497 4.12488 4.12472 10.3499 4.12472 17.9999C4.12472 20.4449 4.7697 22.8299 5.9847 24.9299C6.1347 25.1849 6.17973 25.4999 6.10473 25.7849L4.60473 31.3949L10.1247 29.8649C10.2147 29.8349 10.3197 29.8199 10.4097 29.8199Z" fill="#AF6F57"/>
<path d="M22.1094 26.64C21.1794 26.64 20.2194 26.4299 19.2144 25.9949C18.2694 25.5899 17.3244 25.0499 16.4094 24.3749C15.5094 23.7149 14.6244 22.9649 13.8144 22.1549C13.0044 21.3299 12.2544 20.46 11.5944 19.56C10.9194 18.615 10.3793 17.6849 9.98935 16.7699C9.56935 15.7799 9.35938 14.8049 9.35938 13.8749C9.35938 13.2149 9.47935 12.5849 9.70435 11.9999C9.94435 11.3849 10.3344 10.8299 10.8444 10.3499C11.8044 9.40493 13.1844 9.05996 14.2794 9.58496C14.6544 9.74996 14.9694 10.02 15.2094 10.38L16.9494 12.8249C17.1294 13.0649 17.2644 13.3199 17.3694 13.5749C17.4894 13.8749 17.5644 14.175 17.5644 14.46C17.5644 14.85 17.4594 15.24 17.2494 15.585C17.1144 15.81 16.9194 16.08 16.6644 16.335L16.4694 16.5449C16.5594 16.6649 16.6643 16.8149 16.8293 16.9949C17.1443 17.3549 17.4893 17.7449 17.8643 18.1199C18.2393 18.4799 18.6143 18.8399 18.9893 19.1549C19.1693 19.3049 19.3194 19.4249 19.4394 19.4999L19.6494 19.2899C19.9194 19.0199 20.1894 18.81 20.4594 18.675C20.9544 18.36 21.7194 18.2849 22.3944 18.5699C22.6344 18.6599 22.8744 18.7949 23.1294 18.9749L25.6344 20.7449C25.9794 20.9849 26.2494 21.3149 26.4294 21.6899C26.5794 22.0649 26.6394 22.3949 26.6394 22.7399C26.6394 23.1899 26.5344 23.6249 26.3394 24.0449C26.1444 24.4349 25.9194 24.78 25.6494 25.095C25.1694 25.62 24.6144 26.01 24.0144 26.265C23.4144 26.52 22.7694 26.64 22.1094 26.64ZM13.1844 11.6099C13.0944 11.6099 12.7944 11.6099 12.4194 11.9849C12.1344 12.2549 11.9394 12.54 11.8044 12.855C11.6694 13.17 11.6094 13.53 11.6094 13.89C11.6094 14.52 11.7594 15.1949 12.0594 15.9149C12.3744 16.6649 12.8394 17.46 13.4094 18.255C13.9944 19.05 14.6544 19.8449 15.3894 20.5799C16.1244 21.2999 16.9044 21.9749 17.7144 22.5749C18.4944 23.1449 19.2894 23.5949 20.0844 23.9399C21.2244 24.4349 22.2744 24.5549 23.1294 24.1949C23.4294 24.0749 23.6994 23.865 23.9694 23.595C24.1044 23.445 24.2094 23.2949 24.2994 23.0999C24.3444 22.9949 24.3744 22.8749 24.3744 22.7699C24.3744 22.7399 24.3743 22.695 24.3293 22.605L21.8244 20.8649C21.7194 20.7899 21.6144 20.7299 21.5244 20.6999C21.4644 20.7299 21.3744 20.7749 21.2094 20.9399L20.6394 21.5099C20.2044 21.9449 19.5144 22.0649 18.9594 21.8699L18.6894 21.7499C18.3444 21.5699 17.9544 21.3 17.5194 20.925C17.0994 20.565 16.6944 20.1899 16.2594 19.7699C15.8394 19.3349 15.4644 18.9299 15.1044 18.5099C14.7144 18.0449 14.4444 17.67 14.2644 17.355L14.0994 16.9649C14.0544 16.8149 14.0394 16.6499 14.0394 16.4999C14.0394 16.0799 14.1894 15.7049 14.4744 15.4049L15.0444 14.8199C15.2094 14.6549 15.2694 14.565 15.2994 14.505C15.2544 14.4 15.1944 14.3099 15.1194 14.2049L13.3643 11.73L13.1844 11.6099Z" fill="#AF6F57"/>
</svg>
