<svg width="25" height="25" viewBox="0 0 25 25" fill="none" xmlns="http://www.w3.org/2000/svg">
<path d="M12.5031 0H12.4969C5.60469 0 0 5.60625 0 12.5C0 15.2344 0.88125 17.7687 2.37969 19.8266L0.821875 24.4703L5.62656 22.9344C7.60313 24.2438 9.96094 25 12.5031 25C19.3953 25 25 19.3922 25 12.5C25 5.60781 19.3953 0 12.5031 0Z" fill="#AE6F57"/>
<path d="M19.7773 17.6517C19.4758 18.5032 18.2789 19.2095 17.3242 19.4157C16.6711 19.5548 15.818 19.6657 12.9461 18.4751C9.27266 16.9532 6.90703 13.2204 6.72266 12.9782C6.54609 12.736 5.23828 11.0017 5.23828 9.20791C5.23828 7.41416 6.14922 6.54072 6.51641 6.16572C6.81797 5.85791 7.31641 5.71729 7.79453 5.71729C7.94922 5.71729 8.08828 5.7251 8.21328 5.73135C8.58047 5.74697 8.76484 5.76885 9.00703 6.34854C9.30859 7.0751 10.043 8.86885 10.1305 9.05322C10.2195 9.2376 10.3086 9.4876 10.1836 9.72979C10.0664 9.97979 9.96328 10.0907 9.77891 10.3032C9.59453 10.5157 9.41953 10.6782 9.23516 10.9063C9.06641 11.1048 8.87578 11.3173 9.08828 11.6845C9.30078 12.0438 10.0352 13.2423 11.1164 14.2048C12.5117 15.447 13.643 15.8438 14.0477 16.0126C14.3492 16.1376 14.7086 16.1079 14.9289 15.8735C15.2086 15.572 15.5539 15.072 15.9055 14.5798C16.1555 14.2267 16.4711 14.1829 16.8023 14.3079C17.1398 14.4251 18.9258 15.3079 19.293 15.4907C19.6602 15.6751 19.9023 15.7626 19.9914 15.9173C20.0789 16.072 20.0789 16.7985 19.7773 17.6517Z" fill="#FAFAFA"/>
</svg>
