<svg width="10" height="10" viewBox="0 0 10 10" fill="none" xmlns="http://www.w3.org/2000/svg">
<g id="Frame" clip-path="url(#clip0_1001_1069)">
<g id="Group">
<path id="Vector" d="M5.00125 0H4.99875C2.24188 0 0 2.2425 0 5C0 6.09375 0.3525 7.1075 0.951875 7.93062L0.32875 9.78813L2.25063 9.17375C3.04125 9.6975 3.98438 10 5.00125 10C7.75812 10 10 7.75688 10 5C10 2.24313 7.75812 0 5.00125 0ZM7.91062 7.06063C7.79 7.40125 7.31125 7.68375 6.92937 7.76625C6.66813 7.82187 6.32687 7.86625 5.17812 7.39C3.70875 6.78125 2.7625 5.28813 2.68875 5.19125C2.61812 5.09437 2.095 4.40063 2.095 3.68313C2.095 2.96563 2.45938 2.61625 2.60625 2.46625C2.72688 2.34313 2.92625 2.28688 3.1175 2.28688C3.17937 2.28688 3.235 2.29 3.285 2.2925C3.43187 2.29875 3.50563 2.3075 3.6025 2.53938C3.72312 2.83 4.01687 3.5475 4.05188 3.62125C4.0875 3.695 4.12313 3.795 4.07312 3.89188C4.02625 3.99188 3.985 4.03625 3.91125 4.12125C3.8375 4.20625 3.7675 4.27125 3.69375 4.3625C3.62625 4.44187 3.55 4.52688 3.635 4.67375C3.72 4.8175 4.01375 5.29687 4.44625 5.68187C5.00437 6.17875 5.45687 6.3375 5.61875 6.405C5.73937 6.455 5.88312 6.44313 5.97125 6.34938C6.08313 6.22875 6.22125 6.02875 6.36188 5.83188C6.46187 5.69063 6.58813 5.67312 6.72062 5.72312C6.85563 5.77 7.57 6.12312 7.71688 6.19625C7.86375 6.27 7.96062 6.305 7.99625 6.36688C8.03125 6.42875 8.03125 6.71938 7.91062 7.06063Z" fill="white"/>
</g>
</g>
<defs>
<clipPath id="clip0_1001_1069">
<rect width="10" height="10" fill="white"/>
</clipPath>
</defs>
</svg>
